<svg width="156" height="93" viewBox="0 0 156 93" fill="none" xmlns="http://www.w3.org/2000/svg">
<rect x="31.25" y="59.2498" width="124.5" height="33.5" rx="16.75" fill="#17F1D1" stroke="white" stroke-width="0.5"/>
<mask id="path-2-outside-1_49_29" maskUnits="userSpaceOnUse" x="56" y="66.9998" width="76" height="16" fill="black">
<rect fill="white" x="56" y="66.9998" width="76" height="16"/>
<path d="M57.4517 81.9998V72.1398H59.1517V74.6798H58.8117C58.9317 74.2132 59.0917 73.8132 59.2917 73.4798C59.5051 73.1332 59.7517 72.8532 60.0317 72.6398C60.3117 72.4132 60.6117 72.2465 60.9317 72.1398C61.2651 72.0332 61.6117 71.9798 61.9717 71.9798C62.5717 71.9798 63.0984 72.0932 63.5517 72.3198C64.0051 72.5465 64.3784 72.8932 64.6717 73.3598C64.9651 73.8132 65.1651 74.3932 65.2717 75.0998L64.3117 75.1598C64.5117 74.4798 64.7651 73.9065 65.0717 73.4398C65.3784 72.9598 65.7584 72.5998 66.2117 72.3598C66.6784 72.1065 67.2317 71.9798 67.8717 71.9798C68.6851 71.9798 69.3384 72.1665 69.8317 72.5398C70.3251 72.8998 70.6851 73.3865 70.9117 73.9998C71.1384 74.5998 71.2517 75.2665 71.2517 75.9998V81.9998H69.5717V76.3998C69.5717 75.7865 69.4984 75.2598 69.3517 74.8198C69.2184 74.3798 68.9984 74.0398 68.6917 73.7998C68.3984 73.5598 67.9984 73.4398 67.4917 73.4398C67.0117 73.4398 66.5984 73.5598 66.2517 73.7998C65.9184 74.0398 65.6584 74.4065 65.4717 74.8998C65.2984 75.3798 65.2117 75.9798 65.2117 76.6998V81.9998H63.5117V76.2598C63.5117 75.3132 63.3384 74.6065 62.9917 74.1398C62.6451 73.6732 62.1384 73.4398 61.4717 73.4398C60.9917 73.4398 60.5784 73.5665 60.2317 73.8198C59.8851 74.0598 59.6184 74.4198 59.4317 74.8998C59.2451 75.3798 59.1517 75.9798 59.1517 76.6998V81.9998H57.4517ZM80.4942 81.9998L80.3742 80.0198V75.8198C80.3742 75.0598 80.1609 74.4732 79.7342 74.0598C79.3209 73.6465 78.7009 73.4398 77.8742 73.4398C77.3409 73.4398 76.8409 73.5532 76.3742 73.7798C75.9076 73.9932 75.4542 74.3598 75.0142 74.8798L73.7942 73.8398C74.3409 73.1998 74.9676 72.7332 75.6742 72.4398C76.3809 72.1332 77.1542 71.9798 77.9942 71.9798C79.2876 71.9798 80.2876 72.3132 80.9942 72.9798C81.7009 73.6465 82.0542 74.5932 82.0542 75.8198V81.9998H80.4942ZM77.2342 82.1598C76.4876 82.1598 75.8342 82.0332 75.2742 81.7798C74.7276 81.5132 74.3009 81.1465 73.9942 80.6798C73.7009 80.2132 73.5542 79.6732 73.5542 79.0598C73.5542 78.5132 73.6609 78.0532 73.8742 77.6798C74.1009 77.2932 74.3876 76.9932 74.7342 76.7798C75.0809 76.5532 75.4742 76.3998 75.9142 76.3198C76.3676 76.2265 76.8409 76.1798 77.3342 76.1798H80.5342V77.4598H77.5742C77.2809 77.4598 76.9742 77.4865 76.6542 77.5398C76.3342 77.5932 76.0542 77.7065 75.8142 77.8798C75.6409 78.0132 75.5009 78.1798 75.3942 78.3798C75.3009 78.5798 75.2542 78.8132 75.2542 79.0798C75.2542 79.5998 75.4476 80.0132 75.8342 80.3198C76.2209 80.6265 76.7409 80.7798 77.3942 80.7798C77.9409 80.7798 78.4342 80.6532 78.8742 80.3998C79.3276 80.1465 79.6876 79.7998 79.9542 79.3598C80.2342 78.9065 80.3742 78.3998 80.3742 77.8398L81.0742 78.5598C80.9942 79.2665 80.7809 79.8932 80.4342 80.4398C80.0876 80.9865 79.6409 81.4132 79.0942 81.7198C78.5609 82.0132 77.9409 82.1598 77.2342 82.1598ZM84.795 81.9998V72.1398H86.475V81.9998H84.795ZM84.635 70.3598V68.0598H86.635V70.3598H84.635ZM89.3267 81.9998V72.1398H91.0267V74.2398L90.6267 74.3798C90.8134 73.8732 91.0667 73.4465 91.3867 73.0998C91.7067 72.7398 92.0934 72.4665 92.5467 72.2798C93.0001 72.0798 93.5001 71.9798 94.0467 71.9798C95.1267 71.9798 95.9734 72.2998 96.5867 72.9398C97.2001 73.5665 97.5067 74.4998 97.5067 75.7398V81.9998H95.8067V76.3598C95.8067 75.3598 95.6201 74.6265 95.2467 74.1598C94.8867 73.6798 94.3334 73.4398 93.5867 73.4398C93.0401 73.4398 92.5734 73.5665 92.1867 73.8198C91.8134 74.0732 91.5267 74.4732 91.3267 75.0198C91.1267 75.5532 91.0267 76.2398 91.0267 77.0798V81.9998H89.3267ZM103.544 82.1598C103.078 82.1598 102.651 82.0732 102.264 81.8998C101.891 81.7132 101.598 81.4198 101.384 81.0198C101.171 80.6198 101.064 80.1065 101.064 79.4798V69.4998L102.784 68.5398V79.0398C102.784 79.5865 102.871 80.0132 103.044 80.3198C103.218 80.6132 103.531 80.7598 103.984 80.7598C104.118 80.7598 104.278 80.7465 104.464 80.7198C104.651 80.6798 104.851 80.6332 105.064 80.5798V81.8998C104.811 81.9932 104.551 82.0598 104.284 82.0998C104.031 82.1398 103.784 82.1598 103.544 82.1598ZM99.0242 73.4598V72.1398H105.064V73.4598H99.0242ZM113.658 81.9998L113.538 80.0198V75.8198C113.538 75.0598 113.325 74.4732 112.898 74.0598C112.485 73.6465 111.865 73.4398 111.038 73.4398C110.505 73.4398 110.005 73.5532 109.538 73.7798C109.072 73.9932 108.618 74.3598 108.178 74.8798L106.958 73.8398C107.505 73.1998 108.132 72.7332 108.838 72.4398C109.545 72.1332 110.318 71.9798 111.158 71.9798C112.452 71.9798 113.452 72.3132 114.158 72.9798C114.865 73.6465 115.218 74.5932 115.218 75.8198V81.9998H113.658ZM110.398 82.1598C109.652 82.1598 108.998 82.0332 108.438 81.7798C107.892 81.5132 107.465 81.1465 107.158 80.6798C106.865 80.2132 106.718 79.6732 106.718 79.0598C106.718 78.5132 106.825 78.0532 107.038 77.6798C107.265 77.2932 107.552 76.9932 107.898 76.7798C108.245 76.5532 108.638 76.3998 109.078 76.3198C109.532 76.2265 110.005 76.1798 110.498 76.1798H113.698V77.4598H110.738C110.445 77.4598 110.138 77.4865 109.818 77.5398C109.498 77.5932 109.218 77.7065 108.978 77.8798C108.805 78.0132 108.665 78.1798 108.558 78.3798C108.465 78.5798 108.418 78.8132 108.418 79.0798C108.418 79.5998 108.612 80.0132 108.998 80.3198C109.385 80.6265 109.905 80.7798 110.558 80.7798C111.105 80.7798 111.598 80.6532 112.038 80.3998C112.492 80.1465 112.852 79.7998 113.118 79.3598C113.398 78.9065 113.538 78.3998 113.538 77.8398L114.238 78.5598C114.158 79.2665 113.945 79.8932 113.598 80.4398C113.252 80.9865 112.805 81.4132 112.258 81.7198C111.725 82.0132 111.105 82.1598 110.398 82.1598ZM117.959 81.9998V72.1398H119.639V81.9998H117.959ZM117.799 70.3598V68.0598H119.799V70.3598H117.799ZM122.491 81.9998V72.1398H124.191V74.2398L123.791 74.3798C123.977 73.8732 124.231 73.4465 124.551 73.0998C124.871 72.7398 125.257 72.4665 125.711 72.2798C126.164 72.0798 126.664 71.9798 127.211 71.9798C128.291 71.9798 129.137 72.2998 129.751 72.9398C130.364 73.5665 130.671 74.4998 130.671 75.7398V81.9998H128.971V76.3598C128.971 75.3598 128.784 74.6265 128.411 74.1598C128.051 73.6798 127.497 73.4398 126.751 73.4398C126.204 73.4398 125.737 73.5665 125.351 73.8198C124.977 74.0732 124.691 74.4732 124.491 75.0198C124.291 75.5532 124.191 76.2398 124.191 77.0798V81.9998H122.491Z"/>
</mask>
<path d="M57.4517 81.9998V72.1398H59.1517V74.6798H58.8117C58.9317 74.2132 59.0917 73.8132 59.2917 73.4798C59.5051 73.1332 59.7517 72.8532 60.0317 72.6398C60.3117 72.4132 60.6117 72.2465 60.9317 72.1398C61.2651 72.0332 61.6117 71.9798 61.9717 71.9798C62.5717 71.9798 63.0984 72.0932 63.5517 72.3198C64.0051 72.5465 64.3784 72.8932 64.6717 73.3598C64.9651 73.8132 65.1651 74.3932 65.2717 75.0998L64.3117 75.1598C64.5117 74.4798 64.7651 73.9065 65.0717 73.4398C65.3784 72.9598 65.7584 72.5998 66.2117 72.3598C66.6784 72.1065 67.2317 71.9798 67.8717 71.9798C68.6851 71.9798 69.3384 72.1665 69.8317 72.5398C70.3251 72.8998 70.6851 73.3865 70.9117 73.9998C71.1384 74.5998 71.2517 75.2665 71.2517 75.9998V81.9998H69.5717V76.3998C69.5717 75.7865 69.4984 75.2598 69.3517 74.8198C69.2184 74.3798 68.9984 74.0398 68.6917 73.7998C68.3984 73.5598 67.9984 73.4398 67.4917 73.4398C67.0117 73.4398 66.5984 73.5598 66.2517 73.7998C65.9184 74.0398 65.6584 74.4065 65.4717 74.8998C65.2984 75.3798 65.2117 75.9798 65.2117 76.6998V81.9998H63.5117V76.2598C63.5117 75.3132 63.3384 74.6065 62.9917 74.1398C62.6451 73.6732 62.1384 73.4398 61.4717 73.4398C60.9917 73.4398 60.5784 73.5665 60.2317 73.8198C59.8851 74.0598 59.6184 74.4198 59.4317 74.8998C59.2451 75.3798 59.1517 75.9798 59.1517 76.6998V81.9998H57.4517ZM80.4942 81.9998L80.3742 80.0198V75.8198C80.3742 75.0598 80.1609 74.4732 79.7342 74.0598C79.3209 73.6465 78.7009 73.4398 77.8742 73.4398C77.3409 73.4398 76.8409 73.5532 76.3742 73.7798C75.9076 73.9932 75.4542 74.3598 75.0142 74.8798L73.7942 73.8398C74.3409 73.1998 74.9676 72.7332 75.6742 72.4398C76.3809 72.1332 77.1542 71.9798 77.9942 71.9798C79.2876 71.9798 80.2876 72.3132 80.9942 72.9798C81.7009 73.6465 82.0542 74.5932 82.0542 75.8198V81.9998H80.4942ZM77.2342 82.1598C76.4876 82.1598 75.8342 82.0332 75.2742 81.7798C74.7276 81.5132 74.3009 81.1465 73.9942 80.6798C73.7009 80.2132 73.5542 79.6732 73.5542 79.0598C73.5542 78.5132 73.6609 78.0532 73.8742 77.6798C74.1009 77.2932 74.3876 76.9932 74.7342 76.7798C75.0809 76.5532 75.4742 76.3998 75.9142 76.3198C76.3676 76.2265 76.8409 76.1798 77.3342 76.1798H80.5342V77.4598H77.5742C77.2809 77.4598 76.9742 77.4865 76.6542 77.5398C76.3342 77.5932 76.0542 77.7065 75.8142 77.8798C75.6409 78.0132 75.5009 78.1798 75.3942 78.3798C75.3009 78.5798 75.2542 78.8132 75.2542 79.0798C75.2542 79.5998 75.4476 80.0132 75.8342 80.3198C76.2209 80.6265 76.7409 80.7798 77.3942 80.7798C77.9409 80.7798 78.4342 80.6532 78.8742 80.3998C79.3276 80.1465 79.6876 79.7998 79.9542 79.3598C80.2342 78.9065 80.3742 78.3998 80.3742 77.8398L81.0742 78.5598C80.9942 79.2665 80.7809 79.8932 80.4342 80.4398C80.0876 80.9865 79.6409 81.4132 79.0942 81.7198C78.5609 82.0132 77.9409 82.1598 77.2342 82.1598ZM84.795 81.9998V72.1398H86.475V81.9998H84.795ZM84.635 70.3598V68.0598H86.635V70.3598H84.635ZM89.3267 81.9998V72.1398H91.0267V74.2398L90.6267 74.3798C90.8134 73.8732 91.0667 73.4465 91.3867 73.0998C91.7067 72.7398 92.0934 72.4665 92.5467 72.2798C93.0001 72.0798 93.5001 71.9798 94.0467 71.9798C95.1267 71.9798 95.9734 72.2998 96.5867 72.9398C97.2001 73.5665 97.5067 74.4998 97.5067 75.7398V81.9998H95.8067V76.3598C95.8067 75.3598 95.6201 74.6265 95.2467 74.1598C94.8867 73.6798 94.3334 73.4398 93.5867 73.4398C93.0401 73.4398 92.5734 73.5665 92.1867 73.8198C91.8134 74.0732 91.5267 74.4732 91.3267 75.0198C91.1267 75.5532 91.0267 76.2398 91.0267 77.0798V81.9998H89.3267ZM103.544 82.1598C103.078 82.1598 102.651 82.0732 102.264 81.8998C101.891 81.7132 101.598 81.4198 101.384 81.0198C101.171 80.6198 101.064 80.1065 101.064 79.4798V69.4998L102.784 68.5398V79.0398C102.784 79.5865 102.871 80.0132 103.044 80.3198C103.218 80.6132 103.531 80.7598 103.984 80.7598C104.118 80.7598 104.278 80.7465 104.464 80.7198C104.651 80.6798 104.851 80.6332 105.064 80.5798V81.8998C104.811 81.9932 104.551 82.0598 104.284 82.0998C104.031 82.1398 103.784 82.1598 103.544 82.1598ZM99.0242 73.4598V72.1398H105.064V73.4598H99.0242ZM113.658 81.9998L113.538 80.0198V75.8198C113.538 75.0598 113.325 74.4732 112.898 74.0598C112.485 73.6465 111.865 73.4398 111.038 73.4398C110.505 73.4398 110.005 73.5532 109.538 73.7798C109.072 73.9932 108.618 74.3598 108.178 74.8798L106.958 73.8398C107.505 73.1998 108.132 72.7332 108.838 72.4398C109.545 72.1332 110.318 71.9798 111.158 71.9798C112.452 71.9798 113.452 72.3132 114.158 72.9798C114.865 73.6465 115.218 74.5932 115.218 75.8198V81.9998H113.658ZM110.398 82.1598C109.652 82.1598 108.998 82.0332 108.438 81.7798C107.892 81.5132 107.465 81.1465 107.158 80.6798C106.865 80.2132 106.718 79.6732 106.718 79.0598C106.718 78.5132 106.825 78.0532 107.038 77.6798C107.265 77.2932 107.552 76.9932 107.898 76.7798C108.245 76.5532 108.638 76.3998 109.078 76.3198C109.532 76.2265 110.005 76.1798 110.498 76.1798H113.698V77.4598H110.738C110.445 77.4598 110.138 77.4865 109.818 77.5398C109.498 77.5932 109.218 77.7065 108.978 77.8798C108.805 78.0132 108.665 78.1798 108.558 78.3798C108.465 78.5798 108.418 78.8132 108.418 79.0798C108.418 79.5998 108.612 80.0132 108.998 80.3198C109.385 80.6265 109.905 80.7798 110.558 80.7798C111.105 80.7798 111.598 80.6532 112.038 80.3998C112.492 80.1465 112.852 79.7998 113.118 79.3598C113.398 78.9065 113.538 78.3998 113.538 77.8398L114.238 78.5598C114.158 79.2665 113.945 79.8932 113.598 80.4398C113.252 80.9865 112.805 81.4132 112.258 81.7198C111.725 82.0132 111.105 82.1598 110.398 82.1598ZM117.959 81.9998V72.1398H119.639V81.9998H117.959ZM117.799 70.3598V68.0598H119.799V70.3598H117.799ZM122.491 81.9998V72.1398H124.191V74.2398L123.791 74.3798C123.977 73.8732 124.231 73.4465 124.551 73.0998C124.871 72.7398 125.257 72.4665 125.711 72.2798C126.164 72.0798 126.664 71.9798 127.211 71.9798C128.291 71.9798 129.137 72.2998 129.751 72.9398C130.364 73.5665 130.671 74.4998 130.671 75.7398V81.9998H128.971V76.3598C128.971 75.3598 128.784 74.6265 128.411 74.1598C128.051 73.6798 127.497 73.4398 126.751 73.4398C126.204 73.4398 125.737 73.5665 125.351 73.8198C124.977 74.0732 124.691 74.4732 124.491 75.0198C124.291 75.5532 124.191 76.2398 124.191 77.0798V81.9998H122.491Z" fill="white"/>
<path d="M57.4517 81.9998H56.9517V82.4998H57.4517V81.9998ZM57.4517 72.1398V71.6398H56.9517V72.1398H57.4517ZM59.1517 72.1398H59.6517V71.6398H59.1517V72.1398ZM59.1517 74.6798V75.1798H59.6517V74.6798H59.1517ZM58.8117 74.6798L58.3275 74.5553L58.1669 75.1798H58.8117V74.6798ZM59.2917 73.4798L58.8659 73.2178L58.863 73.2226L59.2917 73.4798ZM60.0317 72.6398L60.3347 73.0375L60.3406 73.0331L60.3463 73.0285L60.0317 72.6398ZM60.9317 72.1398L60.7793 71.6636L60.7736 71.6655L60.9317 72.1398ZM63.5517 72.3198L63.3281 72.767L63.5517 72.3198ZM64.6717 73.3598L64.2484 73.6259L64.2519 73.6315L64.6717 73.3598ZM65.2717 75.0998L65.3029 75.5989L65.8476 75.5648L65.7661 75.0252L65.2717 75.0998ZM64.3117 75.1598L63.832 75.0187L63.6307 75.7034L64.3429 75.6589L64.3117 75.1598ZM65.0717 73.4398L65.4896 73.7144L65.4931 73.709L65.0717 73.4398ZM66.2117 72.3598L66.4457 72.8018L66.4503 72.7993L66.2117 72.3598ZM69.8317 72.5398L69.53 72.9386L69.537 72.9437L69.8317 72.5398ZM70.9117 73.9998L70.4427 74.1732L70.444 74.1765L70.9117 73.9998ZM71.2517 81.9998V82.4998H71.7517V81.9998H71.2517ZM69.5717 81.9998H69.0717V82.4998H69.5717V81.9998ZM69.3517 74.8198L68.873 74.9649L68.8774 74.9779L69.3517 74.8198ZM68.6917 73.7998L68.375 74.1869L68.3836 74.1936L68.6917 73.7998ZM66.2517 73.7998L65.9671 73.3887L65.9596 73.3941L66.2517 73.7998ZM65.4717 74.8998L65.004 74.7229L65.0014 74.73L65.4717 74.8998ZM65.2117 81.9998V82.4998H65.7117V81.9998H65.2117ZM63.5117 81.9998H63.0117V82.4998H63.5117V81.9998ZM62.9917 74.1398L62.5903 74.438L62.9917 74.1398ZM60.2317 73.8198L60.5164 74.2311L60.5267 74.2235L60.2317 73.8198ZM59.1517 81.9998V82.4998H59.6517V81.9998H59.1517ZM57.4517 81.9998H57.9517V72.1398H57.4517H56.9517V81.9998H57.4517ZM57.4517 72.1398V72.6398H59.1517V72.1398V71.6398H57.4517V72.1398ZM59.1517 72.1398H58.6517V74.6798H59.1517H59.6517V72.1398H59.1517ZM59.1517 74.6798V74.1798H58.8117V74.6798V75.1798H59.1517V74.6798ZM58.8117 74.6798L59.296 74.8044C59.4067 74.3737 59.5504 74.0206 59.7205 73.7371L59.2917 73.4798L58.863 73.2226C58.6331 73.6058 58.4567 74.0526 58.3275 74.5553L58.8117 74.6798ZM59.2917 73.4798L59.7175 73.7419C59.9036 73.4395 60.1107 73.2083 60.3347 73.0375L60.0317 72.6398L59.7287 72.2421C59.3927 72.4981 59.1065 72.8268 58.8659 73.2178L59.2917 73.4798ZM60.0317 72.6398L60.3463 73.0285C60.5829 72.8369 60.8305 72.7006 61.0898 72.6142L60.9317 72.1398L60.7736 71.6655C60.393 71.7924 60.0405 71.9894 59.7171 72.2512L60.0317 72.6398ZM60.9317 72.1398L61.0841 72.616C61.3668 72.5256 61.6619 72.4798 61.9717 72.4798V71.9798V71.4798C61.5615 71.4798 61.1633 71.5407 60.7793 71.6636L60.9317 72.1398ZM61.9717 71.9798V72.4798C62.5083 72.4798 62.9559 72.5809 63.3281 72.767L63.5517 72.3198L63.7753 71.8726C63.2409 71.6054 62.6352 71.4798 61.9717 71.4798V71.9798ZM63.5517 72.3198L63.3281 72.767C63.6924 72.9492 63.9994 73.2298 64.2484 73.6259L64.6717 73.3598L65.095 73.0937C64.7574 72.5566 64.3177 72.1438 63.7753 71.8726L63.5517 72.3198ZM64.6717 73.3598L64.2519 73.6315C64.4963 74.0092 64.678 74.5164 64.7773 75.1745L65.2717 75.0998L65.7661 75.0252C65.6521 74.27 65.4338 73.6171 65.0915 73.0882L64.6717 73.3598ZM65.2717 75.0998L65.2405 74.6008L64.2805 74.6608L64.3117 75.1598L64.3429 75.6589L65.3029 75.5989L65.2717 75.0998ZM64.3117 75.1598L64.7914 75.3009C64.981 74.6561 65.2161 74.1305 65.4896 73.7144L65.0717 73.4398L64.6539 73.1652C64.314 73.6825 64.0424 74.3035 63.832 75.0187L64.3117 75.1598ZM65.0717 73.4398L65.4931 73.709C65.7585 73.2936 66.0768 72.997 66.4457 72.8017L66.2117 72.3598L65.9778 71.9179C65.4399 72.2027 64.9983 72.6261 64.6504 73.1706L65.0717 73.4398ZM66.2117 72.3598L66.4503 72.7993C66.8301 72.5931 67.298 72.4798 67.8717 72.4798V71.9798V71.4798C67.1654 71.4798 66.5267 71.6199 65.9732 71.9204L66.2117 72.3598ZM67.8717 71.9798V72.4798C68.6104 72.4798 69.1473 72.649 69.53 72.9385L69.8317 72.5398L70.1334 72.1411C69.5294 71.684 68.7597 71.4798 67.8717 71.4798V71.9798ZM69.8317 72.5398L69.537 72.9437C69.9451 73.2415 70.2477 73.6453 70.4427 74.1732L70.9117 73.9998L71.3807 73.8265C71.1225 73.1277 70.705 72.5581 70.1265 72.1359L69.8317 72.5398ZM70.9117 73.9998L70.444 74.1765C70.6465 74.7126 70.7517 75.3183 70.7517 75.9998H71.2517H71.7517C71.7517 75.2147 71.6303 74.4871 71.3795 73.8231L70.9117 73.9998ZM71.2517 75.9998H70.7517V81.9998H71.2517H71.7517V75.9998H71.2517ZM71.2517 81.9998V81.4998H69.5717V81.9998V82.4998H71.2517V81.9998ZM69.5717 81.9998H70.0717V76.3998H69.5717H69.0717V81.9998H69.5717ZM69.5717 76.3998H70.0717C70.0717 75.749 69.9942 75.1661 69.8261 74.6617L69.3517 74.8198L68.8774 74.9779C69.0026 75.3535 69.0717 75.824 69.0717 76.3998H69.5717ZM69.3517 74.8198L69.8302 74.6748C69.6726 74.1546 69.4014 73.7203 68.9999 73.4061L68.6917 73.7998L68.3836 74.1936C68.5954 74.3594 68.7642 74.6051 68.8732 74.9648L69.3517 74.8198ZM68.6917 73.7998L69.0083 73.4129C68.5996 73.0784 68.0748 72.9398 67.4917 72.9398V73.4398V73.9398C67.922 73.9398 68.1972 74.0413 68.3751 74.1868L68.6917 73.7998ZM67.4917 73.4398V72.9398C66.9246 72.9398 66.4086 73.0831 65.9671 73.3887L66.2517 73.7998L66.5363 74.2109C66.7881 74.0366 67.0988 73.9398 67.4917 73.9398V73.4398ZM66.2517 73.7998L65.9596 73.3941C65.5267 73.7057 65.2157 74.1636 65.0041 74.7229L65.4717 74.8998L65.9394 75.0768C66.1011 74.6494 66.3101 74.3739 66.5439 74.2056L66.2517 73.7998ZM65.4717 74.8998L65.0014 74.73C64.8022 75.2818 64.7117 75.9438 64.7117 76.6998H65.2117H65.7117C65.7117 76.0158 65.7946 75.4778 65.942 75.0697L65.4717 74.8998ZM65.2117 76.6998H64.7117V81.9998H65.2117H65.7117V76.6998H65.2117ZM65.2117 81.9998V81.4998H63.5117V81.9998V82.4998H65.2117V81.9998ZM63.5117 81.9998H64.0117V76.2598H63.5117H63.0117V81.9998H63.5117ZM63.5117 76.2598H64.0117C64.0117 75.2677 63.8329 74.4337 63.3931 73.8417L62.9917 74.1398L62.5903 74.438C62.8439 74.7793 63.0117 75.3586 63.0117 76.2598H63.5117ZM62.9917 74.1398L63.3931 73.8417C62.9373 73.2281 62.2701 72.9398 61.4717 72.9398V73.4398V73.9398C62.0067 73.9398 62.3528 74.1182 62.5903 74.438L62.9917 74.1398ZM61.4717 73.4398V72.9398C60.8988 72.9398 60.379 73.0929 59.9367 73.4161L60.2317 73.8198L60.5267 74.2235C60.7778 74.0401 61.0847 73.9398 61.4717 73.9398V73.4398ZM60.2317 73.8198L59.9471 73.4087C59.5018 73.717 59.1805 74.1664 58.9657 74.7186L59.4317 74.8998L59.8977 75.0811C60.0563 74.6732 60.2683 74.4026 60.5163 74.2309L60.2317 73.8198ZM59.4317 74.8998L58.9657 74.7186C58.7496 75.2744 58.6517 75.9407 58.6517 76.6998H59.1517H59.6517C59.6517 76.019 59.7405 75.4852 59.8977 75.0811L59.4317 74.8998ZM59.1517 76.6998H58.6517V81.9998H59.1517H59.6517V76.6998H59.1517ZM59.1517 81.9998V81.4998H57.4517V81.9998V82.4998H59.1517V81.9998ZM80.4942 81.9998L79.9951 82.0301L80.0236 82.4998H80.4942V81.9998ZM80.3742 80.0198H79.8742V80.035L79.8751 80.0501L80.3742 80.0198ZM79.7342 74.0598L79.3806 74.4134L79.3863 74.419L79.7342 74.0598ZM76.3742 73.7798L76.5822 74.2347L76.5927 74.2296L76.3742 73.7798ZM75.0142 74.8798L74.6899 75.2603L75.0718 75.5859L75.3959 75.2028L75.0142 74.8798ZM73.7942 73.8398L73.414 73.5151L73.089 73.8957L73.4699 74.2203L73.7942 73.8398ZM75.6742 72.4398L75.8659 72.9017L75.8733 72.8985L75.6742 72.4398ZM82.0542 81.9998V82.4998H82.5542V81.9998H82.0542ZM75.2742 81.7798L75.055 82.2292L75.0615 82.2324L75.0681 82.2354L75.2742 81.7798ZM73.9942 80.6798L73.5708 80.946L73.5764 80.9544L73.9942 80.6798ZM73.8742 77.6798L73.4428 77.427L73.4401 77.4318L73.8742 77.6798ZM74.7342 76.7798L74.9964 77.2058L75.0078 77.1983L74.7342 76.7798ZM75.9142 76.3198L76.0037 76.8119L76.015 76.8096L75.9142 76.3198ZM80.5342 76.1798H81.0342V75.6798H80.5342V76.1798ZM80.5342 77.4598V77.9598H81.0342V77.4598H80.5342ZM76.6542 77.5398L76.7364 78.033L76.6542 77.5398ZM75.8142 77.8798L75.5215 77.4745L75.5154 77.4789L75.5094 77.4835L75.8142 77.8798ZM75.3942 78.3798L74.953 78.1445L74.9468 78.1563L74.9411 78.1684L75.3942 78.3798ZM78.8742 80.3998L78.6303 79.9633L78.6247 79.9665L78.8742 80.3998ZM79.9542 79.3598L79.5288 79.0971L79.5266 79.1007L79.9542 79.3598ZM80.3742 77.8398L80.7327 77.4913L79.8742 76.6083V77.8398H80.3742ZM81.0742 78.5598L81.571 78.6161L81.5977 78.381L81.4327 78.2113L81.0742 78.5598ZM80.4342 80.4398L80.012 80.1721V80.1721L80.4342 80.4398ZM79.0942 81.7198L79.3352 82.158L79.3388 82.1559L79.0942 81.7198ZM80.4942 81.9998L80.9933 81.9696L80.8733 79.9896L80.3742 80.0198L79.8751 80.0501L79.9951 82.0301L80.4942 81.9998ZM80.3742 80.0198H80.8742V75.8198H80.3742H79.8742V80.0198H80.3742ZM80.3742 75.8198H80.8742C80.8742 74.9643 80.6313 74.2327 80.0821 73.7007L79.7342 74.0598L79.3863 74.419C79.6905 74.7136 79.8742 75.1554 79.8742 75.8198H80.3742ZM79.7342 74.0598L80.0878 73.7063C79.5476 73.1661 78.778 72.9398 77.8742 72.9398V73.4398V73.9398C78.6238 73.9398 79.0942 74.1269 79.3807 74.4134L79.7342 74.0598ZM77.8742 73.4398V72.9398C77.2674 72.9398 76.6925 73.0694 76.1558 73.3301L76.3742 73.7798L76.5927 74.2296C76.9893 74.0369 77.4144 73.9398 77.8742 73.9398V73.4398ZM76.3742 73.7798L76.1663 73.3251C75.6146 73.5773 75.1052 73.9982 74.6325 74.5569L75.0142 74.8798L75.3959 75.2028C75.8032 74.7214 76.2005 74.409 76.5821 74.2346L76.3742 73.7798ZM75.0142 74.8798L75.3386 74.4993L74.1186 73.4593L73.7942 73.8398L73.4699 74.2203L74.6899 75.2603L75.0142 74.8798ZM73.7942 73.8398L74.1744 74.1646C74.6751 73.5784 75.239 73.1618 75.8659 72.9016L75.6742 72.4398L75.4825 71.978C74.6961 72.3045 74.0067 72.8213 73.414 73.5151L73.7942 73.8398ZM75.6742 72.4398L75.8733 72.8985C76.5116 72.6215 77.2164 72.4798 77.9942 72.4798V71.9798V71.4798C77.092 71.4798 76.2501 71.6448 75.4752 71.9812L75.6742 72.4398ZM77.9942 71.9798V72.4798C79.2033 72.4798 80.0646 72.7902 80.6511 73.3435L80.9942 72.9798L81.3373 72.6161C80.5105 71.8362 79.3718 71.4798 77.9942 71.4798V71.9798ZM80.9942 72.9798L80.6511 73.3435C81.2328 73.8923 81.5542 74.6924 81.5542 75.8198H82.0542H82.5542C82.5542 74.4939 82.169 73.4007 81.3373 72.6161L80.9942 72.9798ZM82.0542 75.8198H81.5542V81.9998H82.0542H82.5542V75.8198H82.0542ZM82.0542 81.9998V81.4998H80.4942V81.9998V82.4998H82.0542V81.9998ZM77.2342 82.1598V81.6598C76.5437 81.6598 75.9632 81.5427 75.4803 81.3243L75.2742 81.7798L75.0681 82.2354C75.7053 82.5236 76.4314 82.6598 77.2342 82.6598V82.1598ZM75.2742 81.7798L75.4934 81.3304C75.02 81.0995 74.6651 80.7902 74.4121 80.4052L73.9942 80.6798L73.5764 80.9544C73.9367 81.5028 74.4351 81.9268 75.055 82.2292L75.2742 81.7798ZM73.9942 80.6798L74.4175 80.4137C74.1798 80.0356 74.0542 79.59 74.0542 79.0598H73.5542H73.0542C73.0542 79.7564 73.2219 80.3908 73.5709 80.9459L73.9942 80.6798ZM73.5542 79.0598H74.0542C74.0542 78.577 74.1484 78.2078 74.3083 77.9279L73.8742 77.6798L73.4401 77.4318C73.1734 77.8985 73.0542 78.4493 73.0542 79.0598H73.5542ZM73.8742 77.6798L74.3056 77.9327C74.4951 77.6094 74.7262 77.3719 74.9963 77.2057L74.7342 76.7798L74.4722 76.354C74.0489 76.6145 73.7067 76.9769 73.4429 77.427L73.8742 77.6798ZM74.7342 76.7798L75.0078 77.1983C75.2943 77.011 75.6241 76.8808 76.0037 76.8118L75.9142 76.3198L75.8248 75.8279C75.3244 75.9189 74.8675 76.0953 74.4606 76.3613L74.7342 76.7798ZM75.9142 76.3198L76.015 76.8096C76.4331 76.7235 76.8725 76.6798 77.3342 76.6798V76.1798V75.6798C76.8092 75.6798 76.302 75.7295 75.8134 75.8301L75.9142 76.3198ZM77.3342 76.1798V76.6798H80.5342V76.1798V75.6798H77.3342V76.1798ZM80.5342 76.1798H80.0342V77.4598H80.5342H81.0342V76.1798H80.5342ZM80.5342 77.4598V76.9598H77.5742V77.4598V77.9598H80.5342V77.4598ZM77.5742 77.4598V76.9598C77.2506 76.9598 76.9164 76.9892 76.572 77.0466L76.6542 77.5398L76.7364 78.033C77.0321 77.9838 77.3111 77.9598 77.5742 77.9598V77.4598ZM76.6542 77.5398L76.572 77.0466C76.1834 77.1114 75.8298 77.2518 75.5215 77.4745L75.8142 77.8798L76.107 78.2852C76.2787 78.1612 76.485 78.0749 76.7364 78.033L76.6542 77.5398ZM75.8142 77.8798L75.5094 77.4835C75.2776 77.6618 75.0919 77.8841 74.953 78.1445L75.3942 78.3798L75.8354 78.6151C75.9098 78.4755 76.0042 78.3645 76.1191 78.2761L75.8142 77.8798ZM75.3942 78.3798L74.9411 78.1684C74.8111 78.4469 74.7542 78.7551 74.7542 79.0798H75.2542H75.7542C75.7542 78.8713 75.7906 78.7127 75.8473 78.5913L75.3942 78.3798ZM75.2542 79.0798H74.7542C74.7542 79.743 75.01 80.3043 75.5235 80.7116L75.8342 80.3198L76.1449 79.9281C75.8851 79.722 75.7542 79.4567 75.7542 79.0798H75.2542ZM75.8342 80.3198L75.5235 80.7116C76.0235 81.1081 76.6647 81.2798 77.3942 81.2798V80.7798V80.2798C76.8171 80.2798 76.4182 80.1449 76.1449 79.9281L75.8342 80.3198ZM77.3942 80.7798V81.2798C78.0215 81.2798 78.602 81.1335 79.1237 80.8331L78.8742 80.3998L78.6247 79.9665C78.2664 80.1728 77.8603 80.2798 77.3942 80.2798V80.7798ZM78.8742 80.3998L79.1181 80.8363C79.6463 80.5412 80.0699 80.1337 80.3818 79.619L79.9542 79.3598L79.5266 79.1007C79.3052 79.466 79.0088 79.7518 78.6303 79.9634L78.8742 80.3998ZM79.9542 79.3598L80.3796 79.6226C80.7109 79.0862 80.8742 78.4877 80.8742 77.8398H80.3742H79.8742C79.8742 78.312 79.7575 78.7268 79.5288 79.0971L79.9542 79.3598ZM80.3742 77.8398L80.0157 78.1884L80.7157 78.9084L81.0742 78.5598L81.4327 78.2113L80.7327 77.4913L80.3742 77.8398ZM81.0742 78.5598L80.5774 78.5036C80.5051 79.1425 80.3142 79.6954 80.012 80.1721L80.4342 80.4398L80.8565 80.7076C81.2476 80.0909 81.4834 79.3905 81.571 78.6161L81.0742 78.5598ZM80.4342 80.4398L80.012 80.1721C79.7081 80.6512 79.3216 81.019 78.8496 81.2838L79.0942 81.7198L79.3388 82.1559C79.9602 81.8074 80.467 81.3218 80.8565 80.7076L80.4342 80.4398ZM79.0942 81.7198L78.8533 81.2817C78.4049 81.5283 77.8703 81.6598 77.2342 81.6598V82.1598V82.6598C78.0115 82.6598 78.7169 82.498 79.3352 82.1579L79.0942 81.7198ZM84.795 81.9998H84.295V82.4998H84.795V81.9998ZM84.795 72.1398V71.6398H84.295V72.1398H84.795ZM86.475 72.1398H86.975V71.6398H86.475V72.1398ZM86.475 81.9998V82.4998H86.975V81.9998H86.475ZM84.635 70.3598H84.135V70.8598H84.635V70.3598ZM84.635 68.0598V67.5598H84.135V68.0598H84.635ZM86.635 68.0598H87.135V67.5598H86.635V68.0598ZM86.635 70.3598V70.8598H87.135V70.3598H86.635ZM84.795 81.9998H85.295V72.1398H84.795H84.295V81.9998H84.795ZM84.795 72.1398V72.6398H86.475V72.1398V71.6398H84.795V72.1398ZM86.475 72.1398H85.975V81.9998H86.475H86.975V72.1398H86.475ZM86.475 81.9998V81.4998H84.795V81.9998V82.4998H86.475V81.9998ZM84.635 70.3598H85.135V68.0598H84.635H84.135V70.3598H84.635ZM84.635 68.0598V68.5598H86.635V68.0598V67.5598H84.635V68.0598ZM86.635 68.0598H86.135V70.3598H86.635H87.135V68.0598H86.635ZM86.635 70.3598V69.8598H84.635V70.3598V70.8598H86.635V70.3598ZM89.3267 81.9998H88.8267V82.4998H89.3267V81.9998ZM89.3267 72.1398V71.6398H88.8267V72.1398H89.3267ZM91.0267 72.1398H91.5267V71.6398H91.0267V72.1398ZM91.0267 74.2398L91.1919 74.7118L91.5267 74.5946V74.2398H91.0267ZM90.6267 74.3798L90.1575 74.207L89.7909 75.2021L90.7919 74.8518L90.6267 74.3798ZM91.3867 73.0998L91.7542 73.439L91.7604 73.432L91.3867 73.0998ZM92.5467 72.2798L92.7372 72.7423L92.7485 72.7373L92.5467 72.2798ZM96.5867 72.9398L96.2257 73.2858L96.2294 73.2896L96.5867 72.9398ZM97.5067 81.9998V82.4998H98.0067V81.9998H97.5067ZM95.8067 81.9998H95.3067V82.4998H95.8067V81.9998ZM95.2467 74.1598L94.8467 74.4598L94.8514 74.4661L94.8563 74.4722L95.2467 74.1598ZM92.1867 73.8198L91.9127 73.4015L91.906 73.4061L92.1867 73.8198ZM91.3267 75.0198L91.7949 75.1954L91.7963 75.1916L91.3267 75.0198ZM91.0267 81.9998V82.4998H91.5267V81.9998H91.0267ZM89.3267 81.9998H89.8267V72.1398H89.3267H88.8267V81.9998H89.3267ZM89.3267 72.1398V72.6398H91.0267V72.1398V71.6398H89.3267V72.1398ZM91.0267 72.1398H90.5267V74.2398H91.0267H91.5267V72.1398H91.0267ZM91.0267 74.2398L90.8615 73.7679L90.4615 73.9079L90.6267 74.3798L90.7919 74.8518L91.1919 74.7118L91.0267 74.2398ZM90.6267 74.3798L91.0959 74.5527C91.2631 74.0988 91.4846 73.731 91.7541 73.439L91.3867 73.0998L91.0193 72.7607C90.6488 73.162 90.3636 73.6476 90.1575 74.207L90.6267 74.3798ZM91.3867 73.0998L91.7604 73.432C92.0291 73.1298 92.3527 72.9005 92.7371 72.7422L92.5467 72.2798L92.3563 71.8175C91.8341 72.0325 91.3844 72.3499 91.013 72.7676L91.3867 73.0998ZM92.5467 72.2798L92.7485 72.7373C93.132 72.5681 93.5623 72.4798 94.0467 72.4798V71.9798V71.4798C93.4378 71.4798 92.8681 71.5915 92.3449 71.8224L92.5467 72.2798ZM94.0467 71.9798V72.4798C95.0223 72.4798 95.7267 72.7651 96.2257 73.2858L96.5867 72.9398L96.9477 72.5939C96.2201 71.8346 95.2311 71.4798 94.0467 71.4798V71.9798ZM96.5867 72.9398L96.2294 73.2896C96.7191 73.7899 97.0067 74.576 97.0067 75.7398H97.5067H98.0067C98.0067 74.4237 97.681 73.3431 96.9441 72.5901L96.5867 72.9398ZM97.5067 75.7398H97.0067V81.9998H97.5067H98.0067V75.7398H97.5067ZM97.5067 81.9998V81.4998H95.8067V81.9998V82.4998H97.5067V81.9998ZM95.8067 81.9998H96.3067V76.3598H95.8067H95.3067V81.9998H95.8067ZM95.8067 76.3598H96.3067C96.3067 75.3163 96.1154 74.4453 95.6372 73.8475L95.2467 74.1598L94.8563 74.4722C95.1247 74.8077 95.3067 75.4034 95.3067 76.3598H95.8067ZM95.2467 74.1598L95.6467 73.8598C95.1693 73.2233 94.448 72.9398 93.5867 72.9398V73.4398V73.9398C94.2187 73.9398 94.6041 74.1364 94.8467 74.4598L95.2467 74.1598ZM93.5867 73.4398V72.9398C92.9608 72.9398 92.3947 73.0858 91.9127 73.4016L92.1867 73.8198L92.4607 74.2381C92.7521 74.0472 93.1193 73.9398 93.5867 73.9398V73.4398ZM92.1867 73.8198L91.906 73.4061C91.4237 73.7333 91.0827 74.2315 90.8572 74.848L91.3267 75.0198L91.7963 75.1916C91.9707 74.7148 92.203 74.413 92.4675 74.2336L92.1867 73.8198ZM91.3267 75.0198L90.8586 74.8443C90.63 75.4537 90.5267 76.2057 90.5267 77.0798H91.0267H91.5267C91.5267 76.274 91.6234 75.6526 91.7949 75.1954L91.3267 75.0198ZM91.0267 77.0798H90.5267V81.9998H91.0267H91.5267V77.0798H91.0267ZM91.0267 81.9998V81.4998H89.3267V81.9998V82.4998H91.0267V81.9998ZM102.264 81.8998L102.041 82.347L102.05 82.3518L102.06 82.3561L102.264 81.8998ZM101.064 69.4998L100.821 69.0632L100.564 69.2063V69.4998H101.064ZM102.784 68.5398H103.284V67.6882L102.541 68.1032L102.784 68.5398ZM103.044 80.3198L102.609 80.5659L102.614 80.5742L103.044 80.3198ZM104.464 80.7198L104.535 81.2148L104.552 81.2124L104.569 81.2087L104.464 80.7198ZM105.064 80.5798H105.564V79.9394L104.943 80.0948L105.064 80.5798ZM105.064 81.8998L105.237 82.369L105.564 82.2485V81.8998H105.064ZM104.284 82.0998L104.21 81.6053L104.206 81.606L104.284 82.0998ZM99.0242 73.4598H98.5242V73.9598H99.0242V73.4598ZM99.0242 72.1398V71.6398H98.5242V72.1398H99.0242ZM105.064 72.1398H105.564V71.6398H105.064V72.1398ZM105.064 73.4598V73.9598H105.564V73.4598H105.064ZM103.544 82.1598V81.6598C103.141 81.6598 102.785 81.5853 102.469 81.4436L102.264 81.8998L102.06 82.3561C102.517 82.5611 103.014 82.6598 103.544 82.6598V82.1598ZM102.264 81.8998L102.488 81.4526C102.215 81.3164 101.994 81.1013 101.825 80.7845L101.384 81.0198L100.943 81.2551C101.201 81.7383 101.566 82.11 102.041 82.347L102.264 81.8998ZM101.384 81.0198L101.825 80.7845C101.663 80.4793 101.564 80.0542 101.564 79.4798H101.064H100.564C100.564 80.1588 100.679 80.7604 100.943 81.2551L101.384 81.0198ZM101.064 79.4798H101.564V69.4998H101.064H100.564V79.4798H101.064ZM101.064 69.4998L101.308 69.9364L103.028 68.9764L102.784 68.5398L102.541 68.1032L100.821 69.0632L101.064 69.4998ZM102.784 68.5398H102.284V79.0398H102.784H103.284V68.5398H102.784ZM102.784 79.0398H102.284C102.284 79.6293 102.376 80.1537 102.609 80.5659L103.044 80.3198L103.479 80.0738C103.366 79.8726 103.284 79.5437 103.284 79.0398H102.784ZM103.044 80.3198L102.614 80.5742C102.906 81.0693 103.42 81.2598 103.984 81.2598V80.7598V80.2598C103.641 80.2598 103.529 80.157 103.475 80.0655L103.044 80.3198ZM103.984 80.7598V81.2598C104.149 81.2598 104.334 81.2436 104.535 81.2148L104.464 80.7198L104.394 80.2249C104.222 80.2494 104.086 80.2598 103.984 80.2598V80.7598ZM104.464 80.7198L104.569 81.2087C104.762 81.1674 104.967 81.1194 105.185 81.0649L105.064 80.5798L104.943 80.0948C104.734 80.1469 104.54 80.1923 104.359 80.2309L104.464 80.7198ZM105.064 80.5798H104.564V81.8998H105.064H105.564V80.5798H105.064ZM105.064 81.8998L104.891 81.4307C104.67 81.5122 104.443 81.5704 104.21 81.6054L104.284 82.0998L104.358 82.5943C104.659 82.5492 104.952 82.4741 105.237 82.369L105.064 81.8998ZM104.284 82.0998L104.206 81.606C103.977 81.6422 103.756 81.6598 103.544 81.6598V82.1598V82.6598C103.812 82.6598 104.085 82.6375 104.362 82.5937L104.284 82.0998ZM99.0242 73.4598H99.5242V72.1398H99.0242H98.5242V73.4598H99.0242ZM99.0242 72.1398V72.6398H105.064V72.1398V71.6398H99.0242V72.1398ZM105.064 72.1398H104.564V73.4598H105.064H105.564V72.1398H105.064ZM105.064 73.4598V72.9598H99.0242V73.4598V73.9598H105.064V73.4598ZM113.658 81.9998L113.159 82.0301L113.188 82.4998H113.658V81.9998ZM113.538 80.0198H113.038V80.035L113.039 80.0501L113.538 80.0198ZM112.898 74.0598L112.545 74.4134L112.55 74.419L112.898 74.0598ZM109.538 73.7798L109.746 74.2347L109.757 74.2296L109.538 73.7798ZM108.178 74.8798L107.854 75.2603L108.236 75.5859L108.56 75.2028L108.178 74.8798ZM106.958 73.8398L106.578 73.5151L106.253 73.8957L106.634 74.2203L106.958 73.8398ZM108.838 72.4398L109.03 72.9017L109.037 72.8985L108.838 72.4398ZM115.218 81.9998V82.4998H115.718V81.9998H115.218ZM108.438 81.7798L108.219 82.2292L108.226 82.2324L108.232 82.2354L108.438 81.7798ZM107.158 80.6798L106.735 80.946L106.74 80.9544L107.158 80.6798ZM107.038 77.6798L106.607 77.427L106.604 77.4318L107.038 77.6798ZM107.898 76.7798L108.16 77.2058L108.172 77.1983L107.898 76.7798ZM109.078 76.3198L109.168 76.8119L109.179 76.8096L109.078 76.3198ZM113.698 76.1798H114.198V75.6798H113.698V76.1798ZM113.698 77.4598V77.9598H114.198V77.4598H113.698ZM109.818 77.5398L109.9 78.033L109.818 77.5398ZM108.978 77.8798L108.686 77.4745L108.679 77.4789L108.673 77.4835L108.978 77.8798ZM108.558 78.3798L108.117 78.1445L108.111 78.1563L108.105 78.1684L108.558 78.3798ZM112.038 80.3998L111.794 79.9633L111.789 79.9665L112.038 80.3998ZM113.118 79.3598L112.693 79.0971L112.691 79.1007L113.118 79.3598ZM113.538 77.8398L113.897 77.4913L113.038 76.6083V77.8398H113.538ZM114.238 78.5598L114.735 78.6161L114.762 78.381L114.597 78.2113L114.238 78.5598ZM113.598 80.4398L113.176 80.1721V80.1721L113.598 80.4398ZM112.258 81.7198L112.499 82.158L112.503 82.1559L112.258 81.7198ZM113.658 81.9998L114.157 81.9696L114.037 79.9896L113.538 80.0198L113.039 80.0501L113.159 82.0301L113.658 81.9998ZM113.538 80.0198H114.038V75.8198H113.538H113.038V80.0198H113.538ZM113.538 75.8198H114.038C114.038 74.9643 113.795 74.2327 113.246 73.7007L112.898 74.0598L112.55 74.419C112.855 74.7136 113.038 75.1554 113.038 75.8198H113.538ZM112.898 74.0598L113.252 73.7063C112.712 73.1661 111.942 72.9398 111.038 72.9398V73.4398V73.9398C111.788 73.9398 112.258 74.1269 112.545 74.4134L112.898 74.0598ZM111.038 73.4398V72.9398C110.431 72.9398 109.857 73.0694 109.32 73.3301L109.538 73.7798L109.757 74.2296C110.153 74.0369 110.578 73.9398 111.038 73.9398V73.4398ZM109.538 73.7798L109.33 73.3251C108.779 73.5773 108.269 73.9982 107.797 74.5569L108.178 74.8798L108.56 75.2028C108.967 74.7214 109.365 74.409 109.746 74.2346L109.538 73.7798ZM108.178 74.8798L108.503 74.4993L107.283 73.4593L106.958 73.8398L106.634 74.2203L107.854 75.2603L108.178 74.8798ZM106.958 73.8398L107.338 74.1646C107.839 73.5784 108.403 73.1618 109.03 72.9016L108.838 72.4398L108.647 71.978C107.86 72.3045 107.171 72.8213 106.578 73.5151L106.958 73.8398ZM108.838 72.4398L109.037 72.8985C109.676 72.6215 110.381 72.4798 111.158 72.4798V71.9798V71.4798C110.256 71.4798 109.414 71.6448 108.639 71.9812L108.838 72.4398ZM111.158 71.9798V72.4798C112.367 72.4798 113.229 72.7902 113.815 73.3435L114.158 72.9798L114.501 72.6161C113.675 71.8362 112.536 71.4798 111.158 71.4798V71.9798ZM114.158 72.9798L113.815 73.3435C114.397 73.8923 114.718 74.6924 114.718 75.8198H115.218H115.718C115.718 74.4939 115.333 73.4007 114.501 72.6161L114.158 72.9798ZM115.218 75.8198H114.718V81.9998H115.218H115.718V75.8198H115.218ZM115.218 81.9998V81.4998H113.658V81.9998V82.4998H115.218V81.9998ZM110.398 82.1598V81.6598C109.708 81.6598 109.127 81.5427 108.644 81.3243L108.438 81.7798L108.232 82.2354C108.869 82.5236 109.595 82.6598 110.398 82.6598V82.1598ZM108.438 81.7798L108.657 81.3304C108.184 81.0995 107.829 80.7902 107.576 80.4052L107.158 80.6798L106.74 80.9544C107.101 81.5028 107.599 81.9268 108.219 82.2292L108.438 81.7798ZM107.158 80.6798L107.582 80.4137C107.344 80.0356 107.218 79.59 107.218 79.0598H106.718H106.218C106.218 79.7564 106.386 80.3908 106.735 80.9459L107.158 80.6798ZM106.718 79.0598H107.218C107.218 78.577 107.312 78.2078 107.472 77.9279L107.038 77.6798L106.604 77.4318C106.337 77.8985 106.218 78.4493 106.218 79.0598H106.718ZM107.038 77.6798L107.47 77.9327C107.659 77.6094 107.89 77.3719 108.16 77.2057L107.898 76.7798L107.636 76.354C107.213 76.6145 106.871 76.9769 106.607 77.427L107.038 77.6798ZM107.898 76.7798L108.172 77.1983C108.458 77.011 108.788 76.8808 109.168 76.8118L109.078 76.3198L108.989 75.8279C108.488 75.9189 108.032 76.0953 107.625 76.3613L107.898 76.7798ZM109.078 76.3198L109.179 76.8096C109.597 76.7235 110.037 76.6798 110.498 76.6798V76.1798V75.6798C109.973 75.6798 109.466 75.7295 108.977 75.8301L109.078 76.3198ZM110.498 76.1798V76.6798H113.698V76.1798V75.6798H110.498V76.1798ZM113.698 76.1798H113.198V77.4598H113.698H114.198V76.1798H113.698ZM113.698 77.4598V76.9598H110.738V77.4598V77.9598H113.698V77.4598ZM110.738 77.4598V76.9598C110.415 76.9598 110.08 76.9892 109.736 77.0466L109.818 77.5398L109.9 78.033C110.196 77.9838 110.475 77.9598 110.738 77.9598V77.4598ZM109.818 77.5398L109.736 77.0466C109.347 77.1114 108.994 77.2518 108.686 77.4745L108.978 77.8798L109.271 78.2852C109.443 78.1612 109.649 78.0749 109.9 78.033L109.818 77.5398ZM108.978 77.8798L108.673 77.4835C108.442 77.6618 108.256 77.8841 108.117 78.1445L108.558 78.3798L108.999 78.6151C109.074 78.4755 109.168 78.3645 109.283 78.2761L108.978 77.8798ZM108.558 78.3798L108.105 78.1684C107.975 78.4469 107.918 78.7551 107.918 79.0798H108.418H108.918C108.918 78.8713 108.955 78.7127 109.011 78.5913L108.558 78.3798ZM108.418 79.0798H107.918C107.918 79.743 108.174 80.3043 108.688 80.7116L108.998 80.3198L109.309 79.9281C109.049 79.722 108.918 79.4567 108.918 79.0798H108.418ZM108.998 80.3198L108.688 80.7116C109.188 81.1081 109.829 81.2798 110.558 81.2798V80.7798V80.2798C109.981 80.2798 109.582 80.1449 109.309 79.9281L108.998 80.3198ZM110.558 80.7798V81.2798C111.186 81.2798 111.766 81.1335 112.288 80.8331L112.038 80.3998L111.789 79.9665C111.43 80.1728 111.024 80.2798 110.558 80.2798V80.7798ZM112.038 80.3998L112.282 80.8363C112.81 80.5412 113.234 80.1337 113.546 79.619L113.118 79.3598L112.691 79.1007C112.469 79.466 112.173 79.7518 111.794 79.9634L112.038 80.3998ZM113.118 79.3598L113.544 79.6226C113.875 79.0862 114.038 78.4877 114.038 77.8398H113.538H113.038C113.038 78.312 112.922 78.7268 112.693 79.0971L113.118 79.3598ZM113.538 77.8398L113.18 78.1884L113.88 78.9084L114.238 78.5598L114.597 78.2113L113.897 77.4913L113.538 77.8398ZM114.238 78.5598L113.741 78.5036C113.669 79.1425 113.478 79.6954 113.176 80.1721L113.598 80.4398L114.021 80.7076C114.412 80.0909 114.647 79.3905 114.735 78.6161L114.238 78.5598ZM113.598 80.4398L113.176 80.1721C112.872 80.6512 112.486 81.019 112.014 81.2838L112.258 81.7198L112.503 82.1559C113.124 81.8074 113.631 81.3218 114.021 80.7076L113.598 80.4398ZM112.258 81.7198L112.017 81.2817C111.569 81.5283 111.034 81.6598 110.398 81.6598V82.1598V82.6598C111.176 82.6598 111.881 82.498 112.499 82.1579L112.258 81.7198ZM117.959 81.9998H117.459V82.4998H117.959V81.9998ZM117.959 72.1398V71.6398H117.459V72.1398H117.959ZM119.639 72.1398H120.139V71.6398H119.639V72.1398ZM119.639 81.9998V82.4998H120.139V81.9998H119.639ZM117.799 70.3598H117.299V70.8598H117.799V70.3598ZM117.799 68.0598V67.5598H117.299V68.0598H117.799ZM119.799 68.0598H120.299V67.5598H119.799V68.0598ZM119.799 70.3598V70.8598H120.299V70.3598H119.799ZM117.959 81.9998H118.459V72.1398H117.959H117.459V81.9998H117.959ZM117.959 72.1398V72.6398H119.639V72.1398V71.6398H117.959V72.1398ZM119.639 72.1398H119.139V81.9998H119.639H120.139V72.1398H119.639ZM119.639 81.9998V81.4998H117.959V81.9998V82.4998H119.639V81.9998ZM117.799 70.3598H118.299V68.0598H117.799H117.299V70.3598H117.799ZM117.799 68.0598V68.5598H119.799V68.0598V67.5598H117.799V68.0598ZM119.799 68.0598H119.299V70.3598H119.799H120.299V68.0598H119.799ZM119.799 70.3598V69.8598H117.799V70.3598V70.8598H119.799V70.3598ZM122.491 81.9998H121.991V82.4998H122.491V81.9998ZM122.491 72.1398V71.6398H121.991V72.1398H122.491ZM124.191 72.1398H124.691V71.6398H124.191V72.1398ZM124.191 74.2398L124.356 74.7118L124.691 74.5946V74.2398H124.191ZM123.791 74.3798L123.322 74.207L122.955 75.2021L123.956 74.8518L123.791 74.3798ZM124.551 73.0998L124.918 73.439L124.924 73.432L124.551 73.0998ZM125.711 72.2798L125.901 72.7423L125.913 72.7373L125.711 72.2798ZM129.751 72.9398L129.39 73.2858L129.393 73.2896L129.751 72.9398ZM130.671 81.9998V82.4998H131.171V81.9998H130.671ZM128.971 81.9998H128.471V82.4998H128.971V81.9998ZM128.411 74.1598L128.011 74.4598L128.015 74.4661L128.02 74.4722L128.411 74.1598ZM125.351 73.8198L125.077 73.4015L125.07 73.4061L125.351 73.8198ZM124.491 75.0198L124.959 75.1954L124.96 75.1916L124.491 75.0198ZM124.191 81.9998V82.4998H124.691V81.9998H124.191ZM122.491 81.9998H122.991V72.1398H122.491H121.991V81.9998H122.491ZM122.491 72.1398V72.6398H124.191V72.1398V71.6398H122.491V72.1398ZM124.191 72.1398H123.691V74.2398H124.191H124.691V72.1398H124.191ZM124.191 74.2398L124.026 73.7679L123.626 73.9079L123.791 74.3798L123.956 74.8518L124.356 74.7118L124.191 74.2398ZM123.791 74.3798L124.26 74.5527C124.427 74.0988 124.649 73.731 124.918 73.439L124.551 73.0998L124.183 72.7607C123.813 73.162 123.528 73.6476 123.322 74.207L123.791 74.3798ZM124.551 73.0998L124.924 73.432C125.193 73.1298 125.517 72.9005 125.901 72.7422L125.711 72.2798L125.52 71.8175C124.998 72.0325 124.548 72.3499 124.177 72.7676L124.551 73.0998ZM125.711 72.2798L125.913 72.7373C126.296 72.5681 126.726 72.4798 127.211 72.4798V71.9798V71.4798C126.602 71.4798 126.032 71.5915 125.509 71.8224L125.711 72.2798ZM127.211 71.9798V72.4798C128.186 72.4798 128.891 72.7651 129.39 73.2858L129.751 72.9398L130.112 72.5939C129.384 71.8346 128.395 71.4798 127.211 71.4798V71.9798ZM129.751 72.9398L129.393 73.2896C129.883 73.7899 130.171 74.576 130.171 75.7398H130.671H131.171C131.171 74.4237 130.845 73.3431 130.108 72.5901L129.751 72.9398ZM130.671 75.7398H130.171V81.9998H130.671H131.171V75.7398H130.671ZM130.671 81.9998V81.4998H128.971V81.9998V82.4998H130.671V81.9998ZM128.971 81.9998H129.471V76.3598H128.971H128.471V81.9998H128.971ZM128.971 76.3598H129.471C129.471 75.3163 129.279 74.4453 128.801 73.8475L128.411 74.1598L128.02 74.4722C128.289 74.8077 128.471 75.4034 128.471 76.3598H128.971ZM128.411 74.1598L128.811 73.8598C128.333 73.2233 127.612 72.9398 126.751 72.9398V73.4398V73.9398C127.383 73.9398 127.768 74.1364 128.011 74.4598L128.411 74.1598ZM126.751 73.4398V72.9398C126.125 72.9398 125.559 73.0858 125.077 73.4016L125.351 73.8198L125.625 74.2381C125.916 74.0472 126.283 73.9398 126.751 73.9398V73.4398ZM125.351 73.8198L125.07 73.4061C124.588 73.7333 124.247 74.2315 124.021 74.848L124.491 75.0198L124.96 75.1916C125.135 74.7148 125.367 74.413 125.632 74.2336L125.351 73.8198ZM124.491 75.0198L124.023 74.8443C123.794 75.4537 123.691 76.2057 123.691 77.0798H124.191H124.691C124.691 76.274 124.787 75.6526 124.959 75.1954L124.491 75.0198ZM124.191 77.0798H123.691V81.9998H124.191H124.691V77.0798H124.191ZM124.191 81.9998V81.4998H122.491V81.9998V82.4998H124.191V81.9998Z" fill="white" mask="url(#path-2-outside-1_49_29)"/>
<g filter="url(#filter0_d_49_29)">
<path d="M25.0731 26.8936L39.2825 38.4001M25.0731 26.8936L34.6124 24.0531M25.0731 26.8936L24.278 36.815" stroke="#17F1D1" stroke-width="7" stroke-linecap="round" stroke-linejoin="round"/>
</g>
<defs>
<filter id="filter0_d_49_29" x="-4" y="-0.000167847" width="77.2891" height="77.289" filterUnits="userSpaceOnUse" color-interpolation-filters="sRGB">
<feFlood flood-opacity="0" result="BackgroundImageFix"/>
<feColorMatrix in="SourceAlpha" type="matrix" values="0 0 0 0 0 0 0 0 0 0 0 0 0 0 0 0 0 0 127 0" result="hardAlpha"/>
<feOffset dy="4"/>
<feGaussianBlur stdDeviation="2"/>
<feComposite in2="hardAlpha" operator="out"/>
<feColorMatrix type="matrix" values="0 0 0 0 0 0 0 0 0 0 0 0 0 0 0 0 0 0 0.25 0"/>
<feBlend mode="normal" in2="BackgroundImageFix" result="effect1_dropShadow_49_29"/>
<feBlend mode="normal" in="SourceGraphic" in2="effect1_dropShadow_49_29" result="shape"/>
</filter>
</defs>
</svg>
