<svg width="156" height="93" viewBox="0 0 156 93" fill="none" xmlns="http://www.w3.org/2000/svg">
<rect x="31.25" y="59.25" width="124.5" height="33.5" rx="16.75" fill="#A597ED" stroke="white" stroke-width="0.5"/>
<mask id="path-2-outside-1_48_28" maskUnits="userSpaceOnUse" x="72" y="67" width="43" height="16" fill="black">
<rect fill="white" x="72" y="67" width="43" height="16"/>
<path d="M77.8558 82.16C77.2291 82.16 76.6625 82.04 76.1558 81.8C75.6625 81.5467 75.2425 81.2 74.8958 80.76C74.5625 80.32 74.3091 79.8134 74.1358 79.24L74.6958 79.06V82H73.0158V68.06H74.6958V75.08L74.2158 74.8C74.3625 74.28 74.6025 73.8067 74.9358 73.38C75.2691 72.9534 75.6825 72.6134 76.1758 72.36C76.6691 72.1067 77.2291 71.98 77.8558 71.98C78.6825 71.98 79.4358 72.1867 80.1158 72.6C80.7958 73.0134 81.3358 73.6 81.7358 74.36C82.1358 75.12 82.3358 76.02 82.3358 77.06C82.3358 78.02 82.1491 78.8867 81.7758 79.66C81.4025 80.4334 80.8758 81.0467 80.1958 81.5C79.5291 81.94 78.7491 82.16 77.8558 82.16ZM77.5758 80.6C78.1758 80.6 78.7025 80.4534 79.1558 80.16C79.6225 79.8534 79.9825 79.4334 80.2358 78.9C80.5025 78.3667 80.6358 77.7534 80.6358 77.06C80.6358 76.3667 80.5025 75.7534 80.2358 75.22C79.9825 74.6867 79.6225 74.2734 79.1558 73.98C78.7025 73.6734 78.1758 73.52 77.5758 73.52C76.9758 73.52 76.4491 73.6734 75.9958 73.98C75.5425 74.2734 75.1891 74.6867 74.9358 75.22C74.6825 75.7534 74.5558 76.3667 74.5558 77.06C74.5558 77.7534 74.6825 78.3667 74.9358 78.9C75.1891 79.4334 75.5425 79.8534 75.9958 80.16C76.4491 80.4534 76.9758 80.6 77.5758 80.6ZM88.0741 82.16C87.3674 82.16 86.7541 82.02 86.2341 81.74C85.7141 81.4467 85.3141 81.02 85.0341 80.46C84.7674 79.9 84.6341 79.2067 84.6341 78.38V72.14H86.3141V77.78C86.3141 78.4334 86.3941 78.98 86.5541 79.42C86.7274 79.8467 86.9808 80.1667 87.3141 80.38C87.6474 80.58 88.0608 80.68 88.5541 80.68C89.1008 80.68 89.5608 80.5534 89.9341 80.3C90.3208 80.0334 90.6141 79.6334 90.8141 79.1C91.0141 78.5667 91.1141 77.88 91.1141 77.04V72.14H92.7941V82H91.1141V79.9H91.5341C91.2541 80.6334 90.8074 81.1934 90.1941 81.58C89.5808 81.9667 88.8741 82.16 88.0741 82.16ZM95.6716 82V72.14H97.3516V82H95.6716ZM95.5116 70.36V68.06H97.5116V70.36H95.5116ZM102.183 82.16C101.583 82.16 101.097 81.9734 100.723 81.6C100.35 81.2267 100.163 80.6334 100.163 79.82V68.06H101.843V79.5C101.843 79.8867 101.923 80.1667 102.083 80.34C102.243 80.5134 102.457 80.6 102.723 80.6C102.843 80.6 102.977 80.5867 103.123 80.56C103.27 80.5334 103.423 80.4934 103.583 80.44V81.88C103.357 81.9734 103.117 82.04 102.863 82.08C102.61 82.1334 102.383 82.16 102.183 82.16ZM109.516 82.16C108.623 82.16 107.836 81.94 107.156 81.5C106.49 81.0467 105.97 80.4334 105.596 79.66C105.223 78.8867 105.036 78.02 105.036 77.06C105.036 76.02 105.236 75.12 105.636 74.36C106.036 73.6 106.576 73.0134 107.256 72.6C107.936 72.1867 108.69 71.98 109.516 71.98C110.143 71.98 110.703 72.1067 111.196 72.36C111.69 72.6 112.103 72.9334 112.436 73.36C112.783 73.7734 113.023 74.24 113.156 74.76L112.676 75.08V68.06H114.356V82H112.676V79.06L113.236 79.24C113.063 79.8134 112.803 80.32 112.456 80.76C112.11 81.2 111.69 81.5467 111.196 81.8C110.703 82.04 110.143 82.16 109.516 82.16ZM109.796 80.6C110.396 80.6 110.923 80.4534 111.376 80.16C111.83 79.8534 112.183 79.4334 112.436 78.9C112.69 78.3667 112.816 77.7534 112.816 77.06C112.816 76.3667 112.69 75.7534 112.436 75.22C112.183 74.6867 111.83 74.2734 111.376 73.98C110.923 73.6734 110.396 73.52 109.796 73.52C109.196 73.52 108.663 73.6734 108.196 73.98C107.743 74.2734 107.383 74.6867 107.116 75.22C106.863 75.7534 106.736 76.3667 106.736 77.06C106.736 77.7534 106.863 78.3667 107.116 78.9C107.383 79.4334 107.743 79.8534 108.196 80.16C108.663 80.4534 109.196 80.6 109.796 80.6Z"/>
</mask>
<path d="M77.8558 82.16C77.2291 82.16 76.6625 82.04 76.1558 81.8C75.6625 81.5467 75.2425 81.2 74.8958 80.76C74.5625 80.32 74.3091 79.8134 74.1358 79.24L74.6958 79.06V82H73.0158V68.06H74.6958V75.08L74.2158 74.8C74.3625 74.28 74.6025 73.8067 74.9358 73.38C75.2691 72.9534 75.6825 72.6134 76.1758 72.36C76.6691 72.1067 77.2291 71.98 77.8558 71.98C78.6825 71.98 79.4358 72.1867 80.1158 72.6C80.7958 73.0134 81.3358 73.6 81.7358 74.36C82.1358 75.12 82.3358 76.02 82.3358 77.06C82.3358 78.02 82.1491 78.8867 81.7758 79.66C81.4025 80.4334 80.8758 81.0467 80.1958 81.5C79.5291 81.94 78.7491 82.16 77.8558 82.16ZM77.5758 80.6C78.1758 80.6 78.7025 80.4534 79.1558 80.16C79.6225 79.8534 79.9825 79.4334 80.2358 78.9C80.5025 78.3667 80.6358 77.7534 80.6358 77.06C80.6358 76.3667 80.5025 75.7534 80.2358 75.22C79.9825 74.6867 79.6225 74.2734 79.1558 73.98C78.7025 73.6734 78.1758 73.52 77.5758 73.52C76.9758 73.52 76.4491 73.6734 75.9958 73.98C75.5425 74.2734 75.1891 74.6867 74.9358 75.22C74.6825 75.7534 74.5558 76.3667 74.5558 77.06C74.5558 77.7534 74.6825 78.3667 74.9358 78.9C75.1891 79.4334 75.5425 79.8534 75.9958 80.16C76.4491 80.4534 76.9758 80.6 77.5758 80.6ZM88.0741 82.16C87.3674 82.16 86.7541 82.02 86.2341 81.74C85.7141 81.4467 85.3141 81.02 85.0341 80.46C84.7674 79.9 84.6341 79.2067 84.6341 78.38V72.14H86.3141V77.78C86.3141 78.4334 86.3941 78.98 86.5541 79.42C86.7274 79.8467 86.9808 80.1667 87.3141 80.38C87.6474 80.58 88.0608 80.68 88.5541 80.68C89.1008 80.68 89.5608 80.5534 89.9341 80.3C90.3208 80.0334 90.6141 79.6334 90.8141 79.1C91.0141 78.5667 91.1141 77.88 91.1141 77.04V72.14H92.7941V82H91.1141V79.9H91.5341C91.2541 80.6334 90.8074 81.1934 90.1941 81.58C89.5808 81.9667 88.8741 82.16 88.0741 82.16ZM95.6716 82V72.14H97.3516V82H95.6716ZM95.5116 70.36V68.06H97.5116V70.36H95.5116ZM102.183 82.16C101.583 82.16 101.097 81.9734 100.723 81.6C100.35 81.2267 100.163 80.6334 100.163 79.82V68.06H101.843V79.5C101.843 79.8867 101.923 80.1667 102.083 80.34C102.243 80.5134 102.457 80.6 102.723 80.6C102.843 80.6 102.977 80.5867 103.123 80.56C103.27 80.5334 103.423 80.4934 103.583 80.44V81.88C103.357 81.9734 103.117 82.04 102.863 82.08C102.61 82.1334 102.383 82.16 102.183 82.16ZM109.516 82.16C108.623 82.16 107.836 81.94 107.156 81.5C106.49 81.0467 105.97 80.4334 105.596 79.66C105.223 78.8867 105.036 78.02 105.036 77.06C105.036 76.02 105.236 75.12 105.636 74.36C106.036 73.6 106.576 73.0134 107.256 72.6C107.936 72.1867 108.69 71.98 109.516 71.98C110.143 71.98 110.703 72.1067 111.196 72.36C111.69 72.6 112.103 72.9334 112.436 73.36C112.783 73.7734 113.023 74.24 113.156 74.76L112.676 75.08V68.06H114.356V82H112.676V79.06L113.236 79.24C113.063 79.8134 112.803 80.32 112.456 80.76C112.11 81.2 111.69 81.5467 111.196 81.8C110.703 82.04 110.143 82.16 109.516 82.16ZM109.796 80.6C110.396 80.6 110.923 80.4534 111.376 80.16C111.83 79.8534 112.183 79.4334 112.436 78.9C112.69 78.3667 112.816 77.7534 112.816 77.06C112.816 76.3667 112.69 75.7534 112.436 75.22C112.183 74.6867 111.83 74.2734 111.376 73.98C110.923 73.6734 110.396 73.52 109.796 73.52C109.196 73.52 108.663 73.6734 108.196 73.98C107.743 74.2734 107.383 74.6867 107.116 75.22C106.863 75.7534 106.736 76.3667 106.736 77.06C106.736 77.7534 106.863 78.3667 107.116 78.9C107.383 79.4334 107.743 79.8534 108.196 80.16C108.663 80.4534 109.196 80.6 109.796 80.6Z" fill="white"/>
<path d="M76.1558 81.8L75.9274 82.2448L75.9345 82.2485L75.9418 82.2519L76.1558 81.8ZM74.8958 80.76L74.4972 81.062L74.5031 81.0695L74.8958 80.76ZM74.1358 79.24L73.9828 78.764L73.515 78.9144L73.6572 79.3847L74.1358 79.24ZM74.6958 79.06H75.1958V78.3741L74.5428 78.584L74.6958 79.06ZM74.6958 82V82.5H75.1958V82H74.6958ZM73.0158 82H72.5158V82.5H73.0158V82ZM73.0158 68.06V67.56H72.5158V68.06H73.0158ZM74.6958 68.06H75.1958V67.56H74.6958V68.06ZM74.6958 75.08L74.4439 75.5119L75.1958 75.9505V75.08H74.6958ZM74.2158 74.8L73.7346 74.6643L73.6295 75.0369L73.9639 75.2319L74.2158 74.8ZM74.9358 73.38L75.3298 73.6879L74.9358 73.38ZM76.1758 72.36L76.4042 72.8048L76.1758 72.36ZM81.7358 74.36L81.2934 74.5929L81.7358 74.36ZM81.7758 79.66L82.2261 79.8774L81.7758 79.66ZM80.1958 81.5L80.4712 81.9173L80.4732 81.9161L80.1958 81.5ZM79.1558 80.16L79.4274 80.5798L79.4304 80.5779L79.1558 80.16ZM80.2358 78.9L79.7885 78.6764L79.7842 78.6855L80.2358 78.9ZM80.2358 75.22L79.7841 75.4346L79.7886 75.4436L80.2358 75.22ZM79.1558 73.98L78.8757 74.3942L78.8826 74.3989L78.8897 74.4033L79.1558 73.98ZM75.9958 73.98L76.2675 74.3999L76.276 74.3942L75.9958 73.98ZM74.9358 75.22L75.3874 75.4346L74.9358 75.22ZM74.9358 78.9L75.3874 78.6855V78.6855L74.9358 78.9ZM75.9958 80.16L75.7156 80.5743L75.7242 80.5798L75.9958 80.16ZM77.8558 82.16V81.66C77.2944 81.66 76.8021 81.5529 76.3699 81.3482L76.1558 81.8L75.9418 82.2519C76.5228 82.5271 77.1639 82.66 77.8558 82.66V82.16ZM76.1558 81.8L76.3842 81.3552C75.9554 81.135 75.5913 80.8348 75.2886 80.4506L74.8958 80.76L74.5031 81.0695C74.8937 81.5653 75.3696 81.9583 75.9274 82.2448L76.1558 81.8ZM74.8958 80.76L75.2944 80.4581C74.9997 80.0692 74.7721 79.6168 74.6144 79.0953L74.1358 79.24L73.6572 79.3847C73.8462 80.01 74.1252 80.5708 74.4973 81.062L74.8958 80.76ZM74.1358 79.24L74.2888 79.716L74.8488 79.536L74.6958 79.06L74.5428 78.584L73.9828 78.764L74.1358 79.24ZM74.6958 79.06H74.1958V82H74.6958H75.1958V79.06H74.6958ZM74.6958 82V81.5H73.0158V82V82.5H74.6958V82ZM73.0158 82H73.5158V68.06H73.0158H72.5158V82H73.0158ZM73.0158 68.06V68.56H74.6958V68.06V67.56H73.0158V68.06ZM74.6958 68.06H74.1958V75.08H74.6958H75.1958V68.06H74.6958ZM74.6958 75.08L74.9477 74.6481L74.4677 74.3681L74.2158 74.8L73.9639 75.2319L74.4439 75.5119L74.6958 75.08ZM74.2158 74.8L74.697 74.9358C74.826 74.4784 75.0364 74.0635 75.3298 73.6879L74.9358 73.38L74.5418 73.0722C74.1686 73.5499 73.8989 74.0817 73.7346 74.6643L74.2158 74.8ZM74.9358 73.38L75.3298 73.6879C75.6174 73.3197 75.9737 73.0259 76.4042 72.8048L76.1758 72.36L75.9474 71.9152C75.3912 72.2009 74.9209 72.587 74.5418 73.0722L74.9358 73.38ZM76.1758 72.36L76.4042 72.8048C76.8182 72.5922 77.2982 72.48 77.8558 72.48V71.98V71.48C77.1601 71.48 76.5201 71.6211 75.9474 71.9152L76.1758 72.36ZM77.8558 71.98V72.48C78.5946 72.48 79.2575 72.6634 79.8561 73.0273L80.1158 72.6L80.3755 72.1728C79.6141 71.71 78.7703 71.48 77.8558 71.48V71.98ZM80.1158 72.6L79.8561 73.0273C80.4526 73.3899 80.9321 73.9065 81.2934 74.5929L81.7358 74.36L82.1783 74.1272C81.7395 73.2936 81.139 72.6369 80.3755 72.1728L80.1158 72.6ZM81.7358 74.36L81.2934 74.5929C81.6484 75.2675 81.8358 76.0842 81.8358 77.06H82.3358H82.8358C82.8358 75.9558 82.6232 74.9726 82.1783 74.1272L81.7358 74.36ZM82.3358 77.06H81.8358C81.8358 77.9537 81.6625 78.7447 81.3255 79.4427L81.7758 79.66L82.2261 79.8774C82.6358 79.0287 82.8358 78.0864 82.8358 77.06H82.3358ZM81.7758 79.66L81.3255 79.4427C80.989 80.1398 80.5203 80.6828 79.9185 81.084L80.1958 81.5L80.4732 81.9161C81.2314 81.4106 81.816 80.727 82.2261 79.8774L81.7758 79.66ZM80.1958 81.5L79.9204 81.0827C79.3449 81.4625 78.6632 81.66 77.8558 81.66V82.16V82.66C78.8351 82.66 79.7134 82.4175 80.4712 81.9173L80.1958 81.5ZM77.5758 80.6V81.1C78.2611 81.1 78.8843 80.9312 79.4274 80.5798L79.1558 80.16L78.8842 79.7402C78.5206 79.9755 78.0905 80.1 77.5758 80.1V80.6ZM79.1558 80.16L79.4304 80.5779C79.978 80.218 80.3972 79.7257 80.6874 79.1146L80.2358 78.9L79.7842 78.6855C79.5678 79.1411 79.2669 79.4887 78.8812 79.7422L79.1558 80.16ZM80.2358 78.9L80.683 79.1236C80.9896 78.5104 81.1358 77.8184 81.1358 77.06H80.6358H80.1358C80.1358 77.6884 80.0153 78.223 79.7886 78.6764L80.2358 78.9ZM80.6358 77.06H81.1358C81.1358 76.3017 80.9896 75.6097 80.683 74.9964L80.2358 75.22L79.7886 75.4436C80.0153 75.8971 80.1358 76.4317 80.1358 77.06H80.6358ZM80.2358 75.22L80.6874 75.0055C80.3964 74.3927 79.9748 73.9042 79.4219 73.5567L79.1558 73.98L78.8897 74.4033C79.2702 74.6425 79.5686 74.9807 79.7842 75.4346L80.2358 75.22ZM79.1558 73.98L79.436 73.5659C78.892 73.1979 78.2656 73.02 77.5758 73.02V73.52V74.02C78.086 74.02 78.513 74.1488 78.8757 74.3942L79.1558 73.98ZM77.5758 73.52V73.02C76.886 73.02 76.2596 73.1979 75.7157 73.5659L75.9958 73.98L76.276 74.3942C76.6386 74.1488 77.0656 74.02 77.5758 74.02V73.52ZM75.9958 73.98L75.7242 73.5602C75.1858 73.9086 74.7735 74.3965 74.4842 75.0055L74.9358 75.22L75.3874 75.4346C75.6048 74.9769 75.8992 74.6381 76.2674 74.3998L75.9958 73.98ZM74.9358 75.22L74.4842 75.0055C74.1939 75.6166 74.0558 76.3053 74.0558 77.06H74.5558H75.0558C75.0558 76.4281 75.171 75.8902 75.3874 75.4346L74.9358 75.22ZM74.5558 77.06H74.0558C74.0558 77.8147 74.1939 78.5035 74.4842 79.1146L74.9358 78.9L75.3874 78.6855C75.171 78.2299 75.0558 77.692 75.0558 77.06H74.5558ZM74.9358 78.9L74.4842 79.1146C74.7727 79.722 75.1826 80.2135 75.7157 80.5742L75.9958 80.16L76.276 79.7459C75.9024 79.4932 75.6056 79.1448 75.3874 78.6855L74.9358 78.9ZM75.9958 80.16L75.7242 80.5798C76.2673 80.9312 76.8905 81.1 77.5758 81.1V80.6V80.1C77.0611 80.1 76.631 79.9755 76.2674 79.7402L75.9958 80.16ZM86.2341 81.74L85.9884 82.1756L85.997 82.1803L86.2341 81.74ZM85.0341 80.46L84.5826 80.675L84.5869 80.6836L85.0341 80.46ZM84.6341 72.14V71.64H84.1341V72.14H84.6341ZM86.3141 72.14H86.8141V71.64H86.3141V72.14ZM86.5541 79.42L86.0842 79.5909L86.0874 79.5996L86.0909 79.6082L86.5541 79.42ZM87.3141 80.38L87.0446 80.8012L87.0506 80.8051L87.0568 80.8088L87.3141 80.38ZM89.9341 80.3L90.2148 80.7138L90.218 80.7116L89.9341 80.3ZM90.8141 79.1L91.2823 79.2756L90.8141 79.1ZM91.1141 72.14V71.64H90.6141V72.14H91.1141ZM92.7941 72.14H93.2941V71.64H92.7941V72.14ZM92.7941 82V82.5H93.2941V82H92.7941ZM91.1141 82H90.6141V82.5H91.1141V82ZM91.1141 79.9V79.4H90.6141V79.9H91.1141ZM91.5341 79.9L92.0012 80.0784L92.2602 79.4H91.5341V79.9ZM90.1941 81.58L89.9274 81.1571L90.1941 81.58ZM88.0741 82.16V81.66C87.434 81.66 86.9052 81.5335 86.4711 81.2998L86.2341 81.74L85.997 82.1803C86.6029 82.5065 87.3009 82.66 88.0741 82.66V82.16ZM86.2341 81.74L86.4798 81.3045C86.0509 81.0626 85.719 80.7119 85.4813 80.2364L85.0341 80.46L84.5869 80.6836C84.9092 81.3282 85.3773 81.8308 85.9884 82.1755L86.2341 81.74ZM85.0341 80.46L85.4855 80.2451C85.2596 79.7707 85.1341 79.1559 85.1341 78.38H84.6341H84.1341C84.1341 79.2575 84.2752 80.0294 84.5827 80.675L85.0341 80.46ZM84.6341 78.38H85.1341V72.14H84.6341H84.1341V78.38H84.6341ZM84.6341 72.14V72.64H86.3141V72.14V71.64H84.6341V72.14ZM86.3141 72.14H85.8141V77.78H86.3141H86.8141V72.14H86.3141ZM86.3141 77.78H85.8141C85.8141 78.4703 85.8981 79.0792 86.0842 79.5909L86.5541 79.42L87.024 79.2492C86.8901 78.8809 86.8141 78.3964 86.8141 77.78H86.3141ZM86.5541 79.42L86.0909 79.6082C86.2965 80.1145 86.6105 80.5234 87.0446 80.8012L87.3141 80.38L87.5836 79.9589C87.351 79.81 87.1583 79.5789 87.0173 79.2318L86.5541 79.42ZM87.3141 80.38L87.0568 80.8088C87.4862 81.0664 87.9942 81.18 88.5541 81.18V80.68V80.18C88.1273 80.18 87.8086 80.0937 87.5713 79.9513L87.3141 80.38ZM88.5541 80.68V81.18C89.1794 81.18 89.7425 81.0343 90.2148 80.7138L89.9341 80.3L89.6533 79.8863C89.379 80.0725 89.0221 80.18 88.5541 80.18V80.68ZM89.9341 80.3L90.218 80.7116C90.7052 80.3756 91.0541 79.8839 91.2823 79.2756L90.8141 79.1L90.3459 78.9245C90.174 79.3828 89.9363 79.6911 89.6502 79.8884L89.9341 80.3ZM90.8141 79.1L91.2823 79.2756C91.5108 78.6662 91.6141 77.9142 91.6141 77.04H91.1141H90.6141C90.6141 77.8459 90.5174 78.4672 90.3459 78.9245L90.8141 79.1ZM91.1141 77.04H91.6141V72.14H91.1141H90.6141V77.04H91.1141ZM91.1141 72.14V72.64H92.7941V72.14V71.64H91.1141V72.14ZM92.7941 72.14H92.2941V82H92.7941H93.2941V72.14H92.7941ZM92.7941 82V81.5H91.1141V82V82.5H92.7941V82ZM91.1141 82H91.6141V79.9H91.1141H90.6141V82H91.1141ZM91.1141 79.9V80.4H91.5341V79.9V79.4H91.1141V79.9ZM91.5341 79.9L91.067 79.7217C90.8222 80.3628 90.4415 80.833 89.9274 81.1571L90.1941 81.58L90.4607 82.003C91.1733 81.5538 91.686 80.9039 92.0012 80.0784L91.5341 79.9ZM90.1941 81.58L89.9274 81.1571C89.4021 81.4883 88.7898 81.66 88.0741 81.66V82.16V82.66C88.9584 82.66 89.7594 82.4451 90.4607 82.003L90.1941 81.58ZM95.6716 82H95.1716V82.5H95.6716V82ZM95.6716 72.14V71.64H95.1716V72.14H95.6716ZM97.3516 72.14H97.8516V71.64H97.3516V72.14ZM97.3516 82V82.5H97.8516V82H97.3516ZM95.5116 70.36H95.0116V70.86H95.5116V70.36ZM95.5116 68.06V67.56H95.0116V68.06H95.5116ZM97.5116 68.06H98.0116V67.56H97.5116V68.06ZM97.5116 70.36V70.86H98.0116V70.36H97.5116ZM95.6716 82H96.1716V72.14H95.6716H95.1716V82H95.6716ZM95.6716 72.14V72.64H97.3516V72.14V71.64H95.6716V72.14ZM97.3516 72.14H96.8516V82H97.3516H97.8516V72.14H97.3516ZM97.3516 82V81.5H95.6716V82V82.5H97.3516V82ZM95.5116 70.36H96.0116V68.06H95.5116H95.0116V70.36H95.5116ZM95.5116 68.06V68.56H97.5116V68.06V67.56H95.5116V68.06ZM97.5116 68.06H97.0116V70.36H97.5116H98.0116V68.06H97.5116ZM97.5116 70.36V69.86H95.5116V70.36V70.86H97.5116V70.36ZM100.723 81.6L101.077 81.2465L100.723 81.6ZM100.163 68.06V67.56H99.6633V68.06H100.163ZM101.843 68.06H102.343V67.56H101.843V68.06ZM102.083 80.34L102.451 80.0009L102.083 80.34ZM103.123 80.56L103.034 80.0681L103.123 80.56ZM103.583 80.44H104.083V79.7463L103.425 79.9657L103.583 80.44ZM103.583 81.88L103.774 82.3424L104.083 82.2149V81.88H103.583ZM102.863 82.08L102.785 81.5861L102.773 81.5881L102.76 81.5908L102.863 82.08ZM102.183 82.16V81.66C101.696 81.66 101.343 81.513 101.077 81.2465L100.723 81.6L100.37 81.9536C100.85 82.4337 101.47 82.66 102.183 82.66V82.16ZM100.723 81.6L101.077 81.2465C100.837 81.0069 100.663 80.5708 100.663 79.82H100.163H99.6633C99.6633 80.6959 99.8626 81.4464 100.37 81.9536L100.723 81.6ZM100.163 79.82H100.663V68.06H100.163H99.6633V79.82H100.163ZM100.163 68.06V68.56H101.843V68.06V67.56H100.163V68.06ZM101.843 68.06H101.343V79.5H101.843H102.343V68.06H101.843ZM101.843 79.5H101.343C101.343 79.9368 101.43 80.3699 101.716 80.6792L102.083 80.34L102.451 80.0009C102.416 79.9635 102.343 79.8366 102.343 79.5H101.843ZM102.083 80.34L101.716 80.6792C101.983 80.9689 102.337 81.1 102.723 81.1V80.6V80.1C102.576 80.1 102.503 80.0578 102.451 80.0009L102.083 80.34ZM102.723 80.6V81.1C102.879 81.1 103.043 81.0828 103.213 81.052L103.123 80.56L103.034 80.0681C102.91 80.0906 102.807 80.1 102.723 80.1V80.6ZM103.123 80.56L103.213 81.052C103.385 81.0206 103.562 80.9742 103.741 80.9144L103.583 80.44L103.425 79.9657C103.285 80.0125 103.154 80.0462 103.034 80.0681L103.123 80.56ZM103.583 80.44H103.083V81.88H103.583H104.083V80.44H103.583ZM103.583 81.88L103.393 81.4177C103.204 81.4955 103.002 81.552 102.785 81.5861L102.863 82.08L102.941 82.5739C103.231 82.5281 103.509 82.4512 103.774 82.3424L103.583 81.88ZM102.863 82.08L102.76 81.5908C102.532 81.6389 102.34 81.66 102.183 81.66V82.16V82.66C102.426 82.66 102.688 82.6278 102.966 82.5693L102.863 82.08ZM107.156 81.5L106.875 81.9136L106.885 81.9198L107.156 81.5ZM105.596 79.66L106.047 79.4427L105.596 79.66ZM105.636 74.36L105.194 74.1272V74.1272L105.636 74.36ZM107.256 72.6L107.516 73.0273L107.256 72.6ZM111.196 72.36L110.968 72.8049L110.978 72.8096L111.196 72.36ZM112.436 73.36L112.042 73.6679L112.048 73.6747L112.053 73.6813L112.436 73.36ZM113.156 74.76L113.434 75.1761L113.729 74.9793L113.641 74.6358L113.156 74.76ZM112.676 75.08H112.176V76.0143L112.954 75.4961L112.676 75.08ZM112.676 68.06V67.56H112.176V68.06H112.676ZM114.356 68.06H114.856V67.56H114.356V68.06ZM114.356 82V82.5H114.856V82H114.356ZM112.676 82H112.176V82.5H112.676V82ZM112.676 79.06L112.829 78.584L112.176 78.3741V79.06H112.676ZM113.236 79.24L113.715 79.3847L113.857 78.9144L113.389 78.764L113.236 79.24ZM112.456 80.76L112.849 81.0695L112.456 80.76ZM111.196 81.8L111.415 82.2498L111.425 82.2448L111.196 81.8ZM111.376 80.16L111.648 80.5799L111.656 80.5742L111.376 80.16ZM112.436 78.9L112.888 79.1146L112.436 78.9ZM112.436 75.22L112.888 75.0055L112.436 75.22ZM111.376 73.98L111.096 74.3943L111.105 74.3998L111.376 73.98ZM108.196 73.98L108.468 74.3998L108.471 74.3979L108.196 73.98ZM107.116 75.22L106.669 74.9964L106.665 75.0055L107.116 75.22ZM107.116 78.9L106.665 79.1146L106.669 79.1236L107.116 78.9ZM108.196 80.16L107.916 80.5742L107.923 80.5789L107.93 80.5833L108.196 80.16ZM109.516 82.16V81.66C108.709 81.66 108.019 81.4626 107.428 81.0802L107.156 81.5L106.885 81.9198C107.654 82.4175 108.537 82.66 109.516 82.66V82.16ZM107.156 81.5L107.437 81.0866C106.848 80.6858 106.384 80.1423 106.047 79.4427L105.596 79.66L105.146 79.8774C105.555 80.7245 106.131 81.4076 106.875 81.9135L107.156 81.5ZM105.596 79.66L106.047 79.4427C105.71 78.7447 105.536 77.9537 105.536 77.06H105.036H104.536C104.536 78.0864 104.736 79.0287 105.146 79.8774L105.596 79.66ZM105.036 77.06H105.536C105.536 76.0842 105.724 75.2675 106.079 74.5929L105.636 74.36L105.194 74.1272C104.749 74.9726 104.536 75.9558 104.536 77.06H105.036ZM105.636 74.36L106.079 74.5929C106.44 73.9065 106.92 73.3899 107.516 73.0273L107.256 72.6L106.997 72.1728C106.233 72.6369 105.633 73.2936 105.194 74.1272L105.636 74.36ZM107.256 72.6L107.516 73.0273C108.115 72.6634 108.777 72.48 109.516 72.48V71.98V71.48C108.602 71.48 107.758 71.71 106.997 72.1728L107.256 72.6ZM109.516 71.98V72.48C110.074 72.48 110.554 72.5922 110.968 72.8048L111.196 72.36L111.425 71.9152C110.852 71.6211 110.212 71.48 109.516 71.48V71.98ZM111.196 72.36L110.978 72.8096C111.403 73.0168 111.756 73.302 112.042 73.6679L112.436 73.36L112.83 73.0522C112.449 72.5647 111.976 72.1833 111.415 71.9104L111.196 72.36ZM112.436 73.36L112.053 73.6813C112.352 74.0377 112.557 74.437 112.672 74.8842L113.156 74.76L113.641 74.6358C113.489 74.043 113.214 73.5091 112.819 73.0387L112.436 73.36ZM113.156 74.76L112.879 74.344L112.399 74.664L112.676 75.08L112.954 75.4961L113.434 75.1761L113.156 74.76ZM112.676 75.08H113.176V68.06H112.676H112.176V75.08H112.676ZM112.676 68.06V68.56H114.356V68.06V67.56H112.676V68.06ZM114.356 68.06H113.856V82H114.356H114.856V68.06H114.356ZM114.356 82V81.5H112.676V82V82.5H114.356V82ZM112.676 82H113.176V79.06H112.676H112.176V82H112.676ZM112.676 79.06L112.523 79.536L113.083 79.716L113.236 79.24L113.389 78.764L112.829 78.584L112.676 79.06ZM113.236 79.24L112.758 79.0953C112.601 79.6131 112.369 80.063 112.064 80.4506L112.456 80.76L112.849 81.0695C113.237 80.5771 113.525 80.0137 113.715 79.3847L113.236 79.24ZM112.456 80.76L112.064 80.4506C111.761 80.8348 111.397 81.135 110.968 81.3552L111.196 81.8L111.425 82.2448C111.983 81.9583 112.458 81.5653 112.849 81.0695L112.456 80.76ZM111.196 81.8L110.978 81.3504C110.561 81.5528 110.078 81.66 109.516 81.66V82.16V82.66C110.208 82.66 110.844 82.5272 111.415 82.2496L111.196 81.8ZM109.796 80.6V81.1C110.482 81.1 111.105 80.9312 111.648 80.5798L111.376 80.16L111.105 79.7402C110.741 79.9755 110.311 80.1 109.796 80.1V80.6ZM111.376 80.16L111.656 80.5742C112.19 80.2135 112.599 79.722 112.888 79.1146L112.436 78.9L111.985 78.6855C111.766 79.1448 111.47 79.4932 111.096 79.7459L111.376 80.16ZM112.436 78.9L112.888 79.1146C113.178 78.5035 113.316 77.8147 113.316 77.06H112.816H112.316C112.316 77.692 112.201 78.2299 111.985 78.6855L112.436 78.9ZM112.816 77.06H113.316C113.316 76.3053 113.178 75.6166 112.888 75.0055L112.436 75.22L111.985 75.4346C112.201 75.8902 112.316 76.4281 112.316 77.06H112.816ZM112.436 75.22L112.888 75.0055C112.599 74.3965 112.186 73.9086 111.648 73.5602L111.376 73.98L111.105 74.3998C111.473 74.6381 111.767 74.9769 111.985 75.4346L112.436 75.22ZM111.376 73.98L111.656 73.5659C111.112 73.1979 110.486 73.02 109.796 73.02V73.52V74.02C110.306 74.02 110.733 74.1488 111.096 74.3942L111.376 73.98ZM109.796 73.52V73.02C109.106 73.02 108.476 73.1979 107.922 73.5622L108.196 73.98L108.471 74.3979C108.85 74.1488 109.286 74.02 109.796 74.02V73.52ZM108.196 73.98L107.925 73.5602C107.389 73.9071 106.971 74.3918 106.669 74.9964L107.116 75.22L107.563 75.4436C107.794 74.9816 108.097 74.6397 108.468 74.3998L108.196 73.98ZM107.116 75.22L106.665 75.0055C106.374 75.6166 106.236 76.3053 106.236 77.06H106.736H107.236C107.236 76.4281 107.352 75.8902 107.568 75.4346L107.116 75.22ZM106.736 77.06H106.236C106.236 77.8147 106.374 78.5035 106.665 79.1146L107.116 78.9L107.568 78.6855C107.352 78.2299 107.236 77.692 107.236 77.06H106.736ZM107.116 78.9L106.669 79.1236C106.971 79.7267 107.385 80.2152 107.916 80.5742L108.196 80.16L108.476 79.7459C108.1 79.4916 107.795 79.14 107.563 78.6764L107.116 78.9ZM108.196 80.16L107.93 80.5833C108.484 80.9312 109.111 81.1 109.796 81.1V80.6V80.1C109.282 80.1 108.842 79.9755 108.462 79.7367L108.196 80.16Z" fill="white" mask="url(#path-2-outside-1_48_28)"/>
<g filter="url(#filter0_d_48_28)">
<path d="M25.0731 26.8937L39.2825 38.4003M25.0731 26.8937L34.6124 24.0532M25.0731 26.8937L24.278 36.8152" stroke="#A597ED" stroke-width="7" stroke-linecap="round" stroke-linejoin="round"/>
</g>
<defs>
<filter id="filter0_d_48_28" x="-4" y="3.05176e-05" width="77.2891" height="77.289" filterUnits="userSpaceOnUse" color-interpolation-filters="sRGB">
<feFlood flood-opacity="0" result="BackgroundImageFix"/>
<feColorMatrix in="SourceAlpha" type="matrix" values="0 0 0 0 0 0 0 0 0 0 0 0 0 0 0 0 0 0 127 0" result="hardAlpha"/>
<feOffset dy="4"/>
<feGaussianBlur stdDeviation="2"/>
<feComposite in2="hardAlpha" operator="out"/>
<feColorMatrix type="matrix" values="0 0 0 0 0 0 0 0 0 0 0 0 0 0 0 0 0 0 0.25 0"/>
<feBlend mode="normal" in2="BackgroundImageFix" result="effect1_dropShadow_48_28"/>
<feBlend mode="normal" in="SourceGraphic" in2="effect1_dropShadow_48_28" result="shape"/>
</filter>
</defs>
</svg>
