<svg width="379" height="379" viewBox="0 0 379 379" fill="none" xmlns="http://www.w3.org/2000/svg">
<circle cx="189.5" cy="189.5" r="189.5" fill="white"/>
<path d="M57 253.6C59.4 252.8 62.1333 252.067 65.2 251.4C68.2667 250.733 70.8667 250.267 73 250V122.2C66.6 121.267 61.2667 120 57 118.4V116H107.8V118.6C103 120.2 97.6 121.4 91.6 122.2V190.8L152 125C152.8 124.2 153.2 123.533 153.2 123C153.2 121.933 151.533 121.067 148.2 120.4C145 119.733 141.8 119.333 138.6 119.2V116H178.8V119.2C177.6 119.467 176 119.733 174 120C172.133 120.267 170.467 120.667 169 121.2C167.533 121.6 166.267 122.4 165.2 123.6L118.2 174.2L177.6 250C184.267 251.2 189.8 252.467 194.2 253.8V256H162.2L107.2 185.8L91.6 203V250C96.9333 250.8 102.333 252.067 107.8 253.8V256H57V253.6ZM310.266 250C317.066 251.2 321.932 252.4 324.866 253.6V256H295.666L262.866 196H239.066V250C244.266 250.8 249.666 252.067 255.266 253.8V256H204.266V253.6C206.666 252.8 209.399 252.067 212.466 251.4C215.532 250.733 218.199 250.267 220.466 250V122.2C214.866 121.4 209.599 120.133 204.666 118.4V116H270.466C285.666 116 296.599 119.467 303.266 126.4C310.066 133.333 313.466 143.067 313.466 155.6C313.466 166.8 310.532 175.867 304.666 182.8C298.932 189.733 290.466 193.933 279.266 195.4L310.266 250ZM239.066 188.8H265.266C275.532 188.8 283.066 185.867 287.866 180C292.666 174.133 295.066 165.933 295.066 155.4C295.066 144.867 292.666 136.933 287.866 131.6C283.066 126.133 275.532 123.4 265.266 123.4H239.066V188.8Z" fill="black"/>
<path d="M43 253.6C45.4 252.8 48.1333 252.067 51.2 251.4C54.2667 250.733 56.8667 250.267 59 250V122.2C52.6 121.267 47.2667 120 43 118.4V116H93.8V118.6C89 120.2 83.6 121.4 77.6 122.2V190.8L138 125C138.8 124.2 139.2 123.533 139.2 123C139.2 121.933 137.533 121.067 134.2 120.4C131 119.733 127.8 119.333 124.6 119.2V116H164.8V119.2C163.6 119.467 162 119.733 160 120C158.133 120.267 156.467 120.667 155 121.2C153.533 121.6 152.267 122.4 151.2 123.6L104.2 174.2L163.6 250C170.267 251.2 175.8 252.467 180.2 253.8V256H148.2L93.2 185.8L77.6 203V250C82.9333 250.8 88.3333 252.067 93.8 253.8V256H43V253.6ZM296.266 250C303.066 251.2 307.932 252.4 310.866 253.6V256H281.666L248.866 196H225.066V250C230.266 250.8 235.666 252.067 241.266 253.8V256H190.266V253.6C192.666 252.8 195.399 252.067 198.466 251.4C201.532 250.733 204.199 250.267 206.466 250V122.2C200.866 121.4 195.599 120.133 190.666 118.4V116H256.466C271.666 116 282.599 119.467 289.266 126.4C296.066 133.333 299.466 143.067 299.466 155.6C299.466 166.8 296.532 175.867 290.666 182.8C284.932 189.733 276.466 193.933 265.266 195.4L296.266 250ZM225.066 188.8H251.266C261.532 188.8 269.066 185.867 273.866 180C278.666 174.133 281.066 165.933 281.066 155.4C281.066 144.867 278.666 136.933 273.866 131.6C269.066 126.133 261.532 123.4 251.266 123.4H225.066V188.8Z" fill="#9E6CFB"/>
</svg>
